<svg width="1920" height="884" xmlns="http://www.w3.org/2000/svg"><g><path d="M-127,-39L-119,640L-102,363Z" fill="#e3917b" stroke="#e3917b"/><path d="M-127,-39L-102,363L-116,8Z" fill="#e35553" stroke="#e35553"/><path d="M-127,-39L-116,8L26,-25Z" fill="#e5395a" stroke="#e5395a"/><path d="M-127,-39L26,-25L251,-104Z" fill="#ec3b59" stroke="#ec3b59"/><path d="M26,-25L-116,8L-52,193Z" fill="#e74f54" stroke="#e74f54"/><path d="M26,-25L-52,193L91,112Z" fill="#ec5e50" stroke="#ec5e50"/><path d="M26,-25L91,112L267,4Z" fill="#f25852" stroke="#f25852"/><path d="M26,-25L267,4L251,-104Z" fill="#f54c55" stroke="#f54c55"/><path d="M251,-104L267,4L388,-113Z" fill="#fa5259" stroke="#fa5259"/><path d="M251,-104L388,-113L637,-149Z" fill="#fc5664" stroke="#fc5664"/><path d="M388,-113L267,4L310,35Z" fill="#fb6057" stroke="#fb6057"/><path d="M388,-113L310,35L511,152Z" fill="#fc7859" stroke="#fc7859"/><path d="M388,-113L511,152L595,-46Z" fill="#fe7e61" stroke="#fe7e61"/><path d="M388,-113L595,-46L637,-149Z" fill="#fd696c" stroke="#fd696c"/><path d="M595,-46L511,152L565,133Z" fill="#fe9861" stroke="#fe9861"/><path d="M595,-46L565,133L735,100Z" fill="#ff9c69" stroke="#ff9c69"/><path d="M595,-46L735,100L795,27Z" fill="#fe9b72" stroke="#fe9b72"/><path d="M595,-46L795,27L825,-83Z" fill="#fd8e77" stroke="#fd8e77"/><path d="M595,-46L825,-83L637,-149Z" fill="#fe7a78" stroke="#fe7a78"/><path d="M637,-149L825,-83L1036,-143Z" fill="#f87b80" stroke="#f87b80"/><path d="M825,-83L795,27L989,73Z" fill="#f79d78" stroke="#f79d78"/><path d="M825,-83L989,73L1036,-143Z" fill="#f3927e" stroke="#f3927e"/><path d="M1036,-143L989,73L1099,33Z" fill="#e8997e" stroke="#e8997e"/><path d="M1036,-143L1099,33L1120,-10Z" fill="#e39081" stroke="#e39081"/><path d="M1036,-143L1120,-10L1350,-95Z" fill="#d88085" stroke="#d88085"/><path d="M1036,-143L1350,-95L1645,-122Z" fill="#c06d89" stroke="#c06d89"/><path d="M1120,-10L1099,33L1231,153Z" fill="#dba57d" stroke="#dba57d"/><path d="M1120,-10L1231,153L1302,63Z" fill="#d3a47d" stroke="#d3a47d"/><path d="M1120,-10L1302,63L1350,-95Z" fill="#cd8d82" stroke="#cd8d82"/><path d="M1350,-95L1302,63L1454,-51Z" fill="#bd8384" stroke="#bd8384"/><path d="M1350,-95L1454,-51L1645,-122Z" fill="#ad6b89" stroke="#ad6b89"/><path d="M1454,-51L1302,63L1469,131Z" fill="#b7947f" stroke="#b7947f"/><path d="M1454,-51L1469,131L1622,55Z" fill="#aa8983" stroke="#aa8983"/><path d="M1454,-51L1622,55L1645,-122Z" fill="#a46c8b" stroke="#a46c8b"/><path d="M1645,-122L1622,55L1694,-104Z" fill="#9b5e90" stroke="#9b5e90"/><path d="M1645,-122L1694,-104L1921,-77Z" fill="#904798" stroke="#904798"/><path d="M1645,-122L1921,-77L1999,-70Z" fill="#853e9c" stroke="#853e9c"/><path d="M1694,-104L1622,55L1688,126Z" fill="#9a718c" stroke="#9a718c"/><path d="M1694,-104L1688,126L1822,144Z" fill="#93718d" stroke="#93718d"/><path d="M1694,-104L1822,144L1921,-77Z" fill="#8a5695" stroke="#8a5695"/><path d="M1921,-77L1822,144L1947,153Z" fill="#816294" stroke="#816294"/><path d="M1921,-77L1947,153L1999,-70Z" fill="#7f489c" stroke="#7f489c"/><path d="M1999,-70L1947,153L2034,127Z" fill="#805599" stroke="#805599"/><path d="M-116,8L-102,363L-52,193Z" fill="#e4725f" stroke="#e4725f"/><path d="M91,112L-52,193L10,289Z" fill="#eb805d" stroke="#eb805d"/><path d="M91,112L10,289L199,250Z" fill="#f18f5e" stroke="#f18f5e"/><path d="M91,112L199,250L301,177Z" fill="#f78c56" stroke="#f78c56"/><path d="M91,112L301,177L267,4Z" fill="#f8724b" stroke="#f8724b"/><path d="M267,4L301,177L310,35Z" fill="#fb7550" stroke="#fb7550"/><path d="M310,35L301,177L511,152Z" fill="#fc8e54" stroke="#fc8e54"/><path d="M565,133L511,152L657,237Z" fill="#feb86b" stroke="#feb86b"/><path d="M565,133L657,237L735,100Z" fill="#ffba6f" stroke="#ffba6f"/><path d="M735,100L657,237L777,268Z" fill="#ffd17c" stroke="#ffd17c"/><path d="M735,100L777,268L989,73Z" fill="#f9c377" stroke="#f9c377"/><path d="M735,100L989,73L795,27Z" fill="#f9ab74" stroke="#f9ab74"/><path d="M989,73L777,268L978,281Z" fill="#f5db83" stroke="#f5db83"/><path d="M989,73L978,281L1168,258Z" fill="#e8d885" stroke="#e8d885"/><path d="M989,73L1168,258L1099,33Z" fill="#e3b979" stroke="#e3b979"/><path d="M1099,33L1168,258L1231,153Z" fill="#d9be7f" stroke="#d9be7f"/><path d="M1302,63L1231,153L1433,174Z" fill="#c4b07e" stroke="#c4b07e"/><path d="M1302,63L1433,174L1469,131Z" fill="#b8a87d" stroke="#b8a87d"/><path d="M1469,131L1433,174L1614,235Z" fill="#acb289" stroke="#acb289"/><path d="M1469,131L1614,235L1622,55Z" fill="#a59d86" stroke="#a59d86"/><path d="M1622,55L1614,235L1688,126Z" fill="#9d9489" stroke="#9d9489"/><path d="M1688,126L1614,235L1702,203Z" fill="#9aa293" stroke="#9aa293"/><path d="M1688,126L1702,203L1822,144Z" fill="#938f91" stroke="#938f91"/><path d="M1822,144L1702,203L1766,391Z" fill="#90a7a2" stroke="#90a7a2"/><path d="M1822,144L1766,391L1947,153Z" fill="#879aa3" stroke="#879aa3"/><path d="M2034,127L1947,153L1971,167Z" fill="#806e9c" stroke="#806e9c"/><path d="M2034,127L1971,167L2038,368Z" fill="#8083a9" stroke="#8083a9"/><path d="M2034,127L2038,368L2059,652Z" fill="#8098c7" stroke="#8098c7"/><path d="M-52,193L-102,363L10,289Z" fill="#e78f70" stroke="#e78f70"/><path d="M10,289L-102,363L123,426Z" fill="#eba07c" stroke="#eba07c"/><path d="M10,289L123,426L199,250Z" fill="#f1a875" stroke="#f1a875"/><path d="M199,250L123,426L277,367Z" fill="#f7b277" stroke="#f7b277"/><path d="M199,250L277,367L301,177Z" fill="#faaa66" stroke="#faaa66"/><path d="M301,177L277,367L417,396Z" fill="#fbbf76" stroke="#fbbf76"/><path d="M301,177L417,396L511,152Z" fill="#fdba6b" stroke="#fdba6b"/><path d="M511,152L417,396L579,421Z" fill="#fed784" stroke="#fed784"/><path d="M511,152L579,421L657,237Z" fill="#fed47f" stroke="#fed47f"/><path d="M657,237L579,421L675,425Z" fill="#ffe793" stroke="#ffe793"/><path d="M657,237L675,425L777,268Z" fill="#ffe992" stroke="#ffe992"/><path d="M777,268L675,425L754,448Z" fill="#fef09d" stroke="#fef09d"/><path d="M777,268L754,448L1003,344Z" fill="#f9f59e" stroke="#f9f59e"/><path d="M777,268L1003,344L978,281Z" fill="#f5f196" stroke="#f5f196"/><path d="M978,281L1003,344L1072,359Z" fill="#ecf6a0" stroke="#ecf6a0"/><path d="M978,281L1072,359L1168,258Z" fill="#e5ee9b" stroke="#e5ee9b"/><path d="M1168,258L1072,359L1138,483Z" fill="#def2a6" stroke="#def2a6"/><path d="M1168,258L1138,483L1327,319Z" fill="#d4eea7" stroke="#d4eea7"/><path d="M1168,258L1327,319L1231,153Z" fill="#cfd991" stroke="#cfd991"/><path d="M1231,153L1327,319L1433,174Z" fill="#c3cd8b" stroke="#c3cd8b"/><path d="M1433,174L1327,319L1385,349Z" fill="#bbd99a" stroke="#bbd99a"/><path d="M1433,174L1385,349L1585,358Z" fill="#b0d59f" stroke="#b0d59f"/><path d="M1433,174L1585,358L1614,235Z" fill="#a7c499" stroke="#a7c499"/><path d="M1614,235L1585,358L1766,391Z" fill="#9bc6b0" stroke="#9bc6b0"/><path d="M1614,235L1766,391L1702,203Z" fill="#97b6a6" stroke="#97b6a6"/><path d="M1947,153L1766,391L1971,167Z" fill="#8195a6" stroke="#8195a6"/><path d="M1971,167L1766,391L1919,445Z" fill="#83abbc" stroke="#83abbc"/><path d="M1971,167L1919,445L2038,368Z" fill="#809fc0" stroke="#809fc0"/><path d="M-102,363L-119,640L-66,525Z" fill="#d59589" stroke="#d59589"/><path d="M-102,363L-66,525L123,426Z" fill="#e99d82" stroke="#e99d82"/><path d="M123,426L-66,525L51,557Z" fill="#dfa285" stroke="#dfa285"/><path d="M123,426L51,557L229,552Z" fill="#e3ac83" stroke="#e3ac83"/><path d="M123,426L229,552L277,367Z" fill="#f6b37e" stroke="#f6b37e"/><path d="M277,367L229,552L364,583Z" fill="#edbd83" stroke="#edbd83"/><path d="M277,367L364,583L417,396Z" fill="#fac684" stroke="#fac684"/><path d="M417,396L364,583L541,497Z" fill="#f2d18c" stroke="#f2d18c"/><path d="M417,396L541,497L579,421Z" fill="#feda8e" stroke="#feda8e"/><path d="M579,421L541,497L675,425Z" fill="#fde396" stroke="#fde396"/><path d="M675,425L541,497L653,593Z" fill="#f0e69c" stroke="#f0e69c"/><path d="M675,425L653,593L754,448Z" fill="#f4eda1" stroke="#f4eda1"/><path d="M754,448L653,593L860,541Z" fill="#e9f1a7" stroke="#e9f1a7"/><path d="M754,448L860,541L1003,344Z" fill="#f7f6a4" stroke="#f7f6a4"/><path d="M1003,344L860,541L1038,580Z" fill="#e7faaa" stroke="#e7faaa"/><path d="M1003,344L1038,580L1072,359Z" fill="#e9f6a8" stroke="#e9f6a8"/><path d="M1072,359L1038,580L1138,483Z" fill="#dcf4ac" stroke="#dcf4ac"/><path d="M1327,319L1138,483L1244,508Z" fill="#d0ecac" stroke="#d0ecac"/><path d="M1327,319L1244,508L1385,349Z" fill="#c4e8a9" stroke="#c4e8a9"/><path d="M1385,349L1244,508L1421,463Z" fill="#c0e6ad" stroke="#c0e6ad"/><path d="M1385,349L1421,463L1585,358Z" fill="#b0deab" stroke="#b0deab"/><path d="M1585,358L1421,463L1569,587Z" fill="#a3d6b4" stroke="#a3d6b4"/><path d="M1585,358L1569,587L1705,509Z" fill="#95cbb9" stroke="#95cbb9"/><path d="M1585,358L1705,509L1766,391Z" fill="#98c3b8" stroke="#98c3b8"/><path d="M1766,391L1705,509L1872,529Z" fill="#86b8c1" stroke="#86b8c1"/><path d="M1766,391L1872,529L1919,445Z" fill="#83afc3" stroke="#83afc3"/><path d="M1919,445L1872,529L1994,452Z" fill="#78a6c8" stroke="#78a6c8"/><path d="M1919,445L1994,452L2038,368Z" fill="#809fc7" stroke="#809fc7"/><path d="M2038,368L1994,452L2059,652Z" fill="#7599ce" stroke="#7599ce"/><path d="M-66,525L-119,640L51,557Z" fill="#c6988b" stroke="#c6988b"/><path d="M51,557L-119,640L94,623Z" fill="#bd9a8a" stroke="#bd9a8a"/><path d="M51,557L94,623L229,552Z" fill="#cfa887" stroke="#cfa887"/><path d="M229,552L94,623L243,727Z" fill="#bea886" stroke="#bea886"/><path d="M229,552L243,727L330,652Z" fill="#bfb086" stroke="#bfb086"/><path d="M229,552L330,652L364,583Z" fill="#d2bb88" stroke="#d2bb88"/><path d="M364,583L330,652L491,612Z" fill="#ccc48e" stroke="#ccc48e"/><path d="M364,583L491,612L541,497Z" fill="#e0d492" stroke="#e0d492"/><path d="M541,497L491,612L653,593Z" fill="#dfde9a" stroke="#dfde9a"/><path d="M653,593L491,612L512,777Z" fill="#bcd39a" stroke="#bcd39a"/><path d="M653,593L512,777L749,715Z" fill="#b3d1a5" stroke="#b3d1a5"/><path d="M653,593L749,715L803,699Z" fill="#bae2aa" stroke="#bae2aa"/><path d="M653,593L803,699L860,541Z" fill="#cdecaa" stroke="#cdecaa"/><path d="M860,541L803,699L985,647Z" fill="#c1eead" stroke="#c1eead"/><path d="M860,541L985,647L1038,580Z" fill="#cbf6ae" stroke="#cbf6ae"/><path d="M1038,580L985,647L1109,671Z" fill="#b1eeb1" stroke="#b1eeb1"/><path d="M1038,580L1109,671L1200,625Z" fill="#abeab3" stroke="#abeab3"/><path d="M1038,580L1200,625L1138,483Z" fill="#c1f1b2" stroke="#c1f1b2"/><path d="M1138,483L1200,625L1244,508Z" fill="#bfefb3" stroke="#bfefb3"/><path d="M1244,508L1200,625L1360,623Z" fill="#a5e7b4" stroke="#a5e7b4"/><path d="M1244,508L1360,623L1421,463Z" fill="#ace6b3" stroke="#ace6b3"/><path d="M1421,463L1360,623L1569,587Z" fill="#96dfb5" stroke="#96dfb5"/><path d="M1569,587L1360,623L1525,671Z" fill="#78d3b7" stroke="#78d3b7"/><path d="M1569,587L1525,671L1667,702Z" fill="#63c4bd" stroke="#63c4bd"/><path d="M1569,587L1667,702L1705,509Z" fill="#71c3bf" stroke="#71c3bf"/><path d="M1705,509L1667,702L1872,529Z" fill="#6db9c4" stroke="#6db9c4"/><path d="M1872,529L1667,702L1925,616Z" fill="#58acc8" stroke="#58acc8"/><path d="M1872,529L1925,616L1994,452Z" fill="#6ba6cc" stroke="#6ba6cc"/><path d="M1994,452L1925,616L2059,652Z" fill="#5e9bd0" stroke="#5e9bd0"/><path d="M-119,640L-109,1045L-28,867Z" fill="#6d50a4" stroke="#6d50a4"/><path d="M-119,640L-28,867L115,752Z" fill="#8e7696" stroke="#8e7696"/><path d="M-119,640L115,752L94,623Z" fill="#a7938b" stroke="#a7938b"/><path d="M94,623L115,752L243,727Z" fill="#a6968b" stroke="#a6968b"/><path d="M243,727L115,752L275,859Z" fill="#948393" stroke="#948393"/><path d="M243,727L275,859L405,817Z" fill="#92889a" stroke="#92889a"/><path d="M243,727L405,817L330,652Z" fill="#a5a092" stroke="#a5a092"/><path d="M330,652L405,817L512,777Z" fill="#a2a89a" stroke="#a2a89a"/><path d="M330,652L512,777L491,612Z" fill="#b6c093" stroke="#b6c093"/><path d="M749,715L512,777L727,800Z" fill="#9fbeb0" stroke="#9fbeb0"/><path d="M749,715L727,800L803,699Z" fill="#a5ceb3" stroke="#a5ceb3"/><path d="M803,699L727,800L792,855Z" fill="#97c0b9" stroke="#97c0b9"/><path d="M803,699L792,855L997,867Z" fill="#8cbdbe" stroke="#8cbdbe"/><path d="M803,699L997,867L985,647Z" fill="#9cd5b7" stroke="#9cd5b7"/><path d="M985,647L997,867L1096,835Z" fill="#86c5bf" stroke="#86c5bf"/><path d="M985,647L1096,835L1109,671Z" fill="#94d8b8" stroke="#94d8b8"/><path d="M1109,671L1096,835L1284,782Z" fill="#7bc5c0" stroke="#7bc5c0"/><path d="M1109,671L1284,782L1200,625Z" fill="#8ad9b9" stroke="#8ad9b9"/><path d="M1200,625L1284,782L1360,623Z" fill="#83d9b6" stroke="#83d9b6"/><path d="M1360,623L1284,782L1488,790Z" fill="#65c3be" stroke="#65c3be"/><path d="M1360,623L1488,790L1525,671Z" fill="#65c9ba" stroke="#65c9ba"/><path d="M1525,671L1488,790L1638,783Z" fill="#4cadc6" stroke="#4cadc6"/><path d="M1525,671L1638,783L1667,702Z" fill="#4eafc5" stroke="#4eafc5"/><path d="M1667,702L1638,783L1689,768Z" fill="#3f9ecb" stroke="#3f9ecb"/><path d="M1667,702L1689,768L1888,764Z" fill="#3796cf" stroke="#3796cf"/><path d="M1667,702L1888,764L1925,616Z" fill="#3d9dcd" stroke="#3d9dcd"/><path d="M1925,616L1888,764L2059,652Z" fill="#3992d1" stroke="#3992d1"/><path d="M2059,652L1888,764L1985,877Z" fill="#2074dd" stroke="#2074dd"/><path d="M2059,652L1985,877L2060,1041Z" fill="#0650eb" stroke="#0650eb"/><path d="M-28,867L-109,1045L76,929Z" fill="#6938a8" stroke="#6938a8"/><path d="M-28,867L76,929L115,752Z" fill="#765ea0" stroke="#765ea0"/><path d="M115,752L76,929L275,859Z" fill="#7e689e" stroke="#7e689e"/><path d="M275,859L76,929L199,1043Z" fill="#774da3" stroke="#774da3"/><path d="M275,859L199,1043L369,920Z" fill="#7b59a4" stroke="#7b59a4"/><path d="M275,859L369,920L405,817Z" fill="#807aa5" stroke="#807aa5"/><path d="M405,817L369,920L512,777Z" fill="#898da6" stroke="#898da6"/><path d="M512,777L369,920L544,1034Z" fill="#7f7db0" stroke="#7f7db0"/><path d="M512,777L544,1034L691,956Z" fill="#7f84b9" stroke="#7f84b9"/><path d="M512,777L691,956L727,800Z" fill="#89a3b9" stroke="#89a3b9"/><path d="M727,800L691,956L792,855Z" fill="#81a4c3" stroke="#81a4c3"/><path d="M792,855L691,956L794,971Z" fill="#7d93c6" stroke="#7d93c6"/><path d="M792,855L794,971L997,867Z" fill="#78a0c9" stroke="#78a0c9"/><path d="M997,867L794,971L1021,1028Z" fill="#7492cb" stroke="#7492cb"/><path d="M997,867L1021,1028L1079,1037Z" fill="#6a89ce" stroke="#6a89ce"/><path d="M997,867L1079,1037L1096,835Z" fill="#679bce" stroke="#679bce"/><path d="M1096,835L1079,1037L1216,971Z" fill="#5e8dd0" stroke="#5e8dd0"/><path d="M1096,835L1216,971L1284,782Z" fill="#5aa4ce" stroke="#5aa4ce"/><path d="M1284,782L1216,971L1399,989Z" fill="#478ed2" stroke="#478ed2"/><path d="M1284,782L1399,989L1488,790Z" fill="#419ccd" stroke="#419ccd"/><path d="M1488,790L1399,989L1555,965Z" fill="#2f81d4" stroke="#2f81d4"/><path d="M1488,790L1555,965L1638,783Z" fill="#2f8dd2" stroke="#2f8dd2"/><path d="M1638,783L1555,965L1695,925Z" fill="#1f77dc" stroke="#1f77dc"/><path d="M1638,783L1695,925L1689,768Z" fill="#2986d5" stroke="#2986d5"/><path d="M1689,768L1695,925L1888,764Z" fill="#217ed9" stroke="#217ed9"/><path d="M1888,764L1695,925L1843,961Z" fill="#0b63e4" stroke="#0b63e4"/><path d="M1888,764L1843,961L1985,877Z" fill="#045de7" stroke="#045de7"/><path d="M1985,877L1843,961L2060,1041Z" fill="#0039ec" stroke="#0039ec"/><path d="M-109,1045L2060,1041L199,1043Z" fill="#7f70c5" stroke="#7f70c5"/><path d="M-109,1045L199,1043L76,929Z" fill="#6e2da6" stroke="#6e2da6"/><path d="M199,1043L2060,1041L1079,1037Z" fill="#6073d0" stroke="#6073d0"/><path d="M199,1043L1079,1037L544,1034Z" fill="#7f65bb" stroke="#7f65bb"/><path d="M199,1043L544,1034L369,920Z" fill="#7d53a9" stroke="#7d53a9"/><path d="M544,1034L1079,1037L1021,1028Z" fill="#7777ca" stroke="#7777ca"/><path d="M544,1034L1021,1028L794,971Z" fill="#7c7ac7" stroke="#7c7ac7"/><path d="M544,1034L794,971L691,956Z" fill="#7f7ac1" stroke="#7f7ac1"/><path d="M1079,1037L2060,1041L1399,989Z" fill="#2b5cd6" stroke="#2b5cd6"/><path d="M1079,1037L1399,989L1216,971Z" fill="#5177d2" stroke="#5177d2"/><path d="M1399,989L2060,1041L1555,965Z" fill="#1a50de" stroke="#1a50de"/><path d="M1555,965L2060,1041L1843,961Z" fill="#0a41e5" stroke="#0a41e5"/><path d="M1555,965L1843,961L1695,925Z" fill="#175cdf" stroke="#175cdf"/></g></svg>