<svg xmlns:svg="http://www.w3.org/2000/svg" xmlns="http://www.w3.org/2000/svg" width="250" height="250" id="svg3087" version="1.1">
  <defs id="defs3089"/>
  <metadata id="metadata3092"/>
  <g id="layer1" transform="translate(-610.70891,-197.71511)">
    <path id="path3046" d="m695.51561 399.38768c-2.88713-0.77744-7.14206-2.37913-9.4554-3.55931-4.89467-2.49707-14.95341-11.79733-17.87871-16.53055-1.11234-1.79981-4.16012-4.84158-6.77283-6.75949-2.61271-1.91791-6.75139-6.02196-9.19706-9.12011-5.90945-7.48604-8.30581-8.63387-17.51619-8.39009-4.10893 0.10875-7.76773-0.0992-8.13068-0.46217-1.1985-1.19851 5.21003-9.07462 9.24179-11.35821 5.1873-2.93808 13.88711-3.00406 23.04718-0.17481 5.70585 1.76237 7.40431 1.91892 10.56027 0.97336 8.53643-2.55757 12.75124-9.14801 20.77749-32.48845l5.12891-14.91496-3.72486-3.08504c-2.74451-2.27308-5.5054-3.39482-10.48998-4.26202-9.14483-1.59101-18.26088-5.83928-22.15388-10.32418-1.7527-2.01918-6.06629-5.19339-9.58576-7.0538-4.26108-2.25243-7.46583-4.85257-9.59199-7.78238-3.45099-4.75539-6.07367-10.93129-5.06885-11.93612 0.34305-0.34305 4.44928 0.17139 9.12496 1.1432 7.57598 1.57461 12.1709 1.6936 42.21808 1.09333 33.37776-0.6668 33.75457-0.69781 37.46835-3.08351 9.70936-6.2372 12.7858-6.88597 32.24849-6.80065 22.0348 0.0966 33.66833 2.21043 46.14751 8.38505 9.91452 4.90565 16.23828 11.40064 22.13442 22.73376 5.37548 10.33235 6.96548 11.682 14.49305 12.30228 3.33737 0.275 6.23945 1.02099 6.44907 1.65776 0.20961 0.63676-2.59858 4.57426-6.24043 8.75-6.35703 7.28893-6.79622 7.59224-10.99357 7.59224-2.40461 0-4.65088 0.45122-4.99172 1.00271-0.34084 0.55148-0.98622 3.32123-1.43418 6.15498-0.93892 5.93962 0.42039 12.89402 4.43784 22.70453 1.60113 3.90992 2.48831 7.7644 2.30168 10.00001-0.2668 3.19613-0.85 3.91181-4.80367 5.89492-3.95954 1.98605-4.83201 3.05943-7.26443 8.93721-1.52044 3.67403-3.47533 7.4656-4.34421 8.42569-1.09658 1.21171-1.37704 2.66868-0.91695 4.76346 0.94236 4.29052-2.44615 11.5334-6.33711 13.5455-4.24481 2.19508-6.50526 1.99735-16.69971-1.46077-13.6196-4.61999-18.3168-4.81711-28.47944-1.19515-4.65198 1.65796-13.40815 5.26017-19.45815 8.0049-17.39179 7.89022-31.71644 10.05169-44.24933 6.67688zm26.79477-6.84415c4.69999-1.30045 10.72754-3.47343 13.39456-4.82885l4.84912-2.46439-8.40741-0.59332c-4.62407-0.32633-9.58018-1.03921-11.01358-1.58419-1.4334-0.54497-10.20262-1.29154-19.48715-1.65903-9.28454-0.3675-18.6139-1.10562-20.73192-1.64028-2.11802-0.53465-4.14302-0.67328-4.5-0.30805-1.25483 1.2838 8.97406 9.37067 14.63057 11.56679 11.14024 4.32517 19.61554 4.73484 31.26581 1.51132zm80.87783-10.1996c2.65326-2.23257 3.07673-3.25336 3.07673-7.4166 0-4.10252-0.41308-5.13589-2.75-6.87942l-2.75-2.05173 3.16821-0.0317c4.49126-0.0449 6.33179-0.95726 6.33179-3.13867 0-1.28678-0.72055-1.90346-2.25-1.92566-1.2375-0.0179-4.725-0.94421-7.75-2.05835-3.025-1.11414-6.85-2.3554-8.5-2.75835-3.59834-0.87876-3.77761-1.89039-0.69741-3.93557 2.13935-1.42047 2.34063-1.38339 2.83918 0.52303 0.63085 2.41239 6.38094 4.30864 13.89272 4.58151 4.75591 0.17277 4.97917 0.0612 5.28911-2.64399 0.2502-2.18378-0.15599-2.94979-1.79089-3.37733-3.75184-0.98113-1.49432-2.79641 3.55925-2.86201 6.32949-0.0821 9.40983-1.14827 9.4009-3.25368-0.004-0.92542-1.63171-5.9576-3.61728-11.1826-3.61731-9.5189-4.57447-16.60775-3.37558-25l0.5-3.5-6.5-0.88705c-8.9139-1.21648-23.8084 0.57214-29.78857 3.57719-5.06439 2.54486-5.52052 3.17473-7.25476 10.018-0.65623 2.58948-2.71494 6.48601-4.57491 8.65896-1.85997 2.17296-3.36924 4.55429-3.35394 5.29186 0.0153 0.73757 1.3631 3.10575 2.9951 5.26261 1.632 2.15686 2.74925 4.13959 2.48278 4.40606-0.26647 0.26648-2.76917-0.93573-5.56154-2.67156-7.64366-4.75156-8.02291-4.50018-5.04491 3.34393 3.00051 7.90338 3.56817 15.38033 1.66479 21.92772-0.90189 3.10238-1.36698 6.08212-1.03354 6.62164 0.33345 0.53953 2.26299 1.69743 4.28788 2.57313 4.79246 2.07258 31.33156 11.20089 32.85489 11.30067 0.64531 0.0423 2.55781-1.08815 4.25-2.51204zm2.82673-55.07796c-1.5125-0.79326-2.75-2.15071-2.75-3.01656 0-1.31465-0.83961-1.46288-5.09142-0.89886-3.34988 0.44438-5.57324 0.27553-6.5-0.49361-2.58672-2.14679-1.45561-2.92366 4.34142-2.98176 7.37906-0.074 13.4908-1.16476 13.93135-2.48642 0.19008-0.57025-0.27183-1.88123-1.02648-2.91327-1.19428-1.63328-2.63184-1.85632-11.09296-1.72113-10.6403 0.17001-11.78667-0.71145-5.30194-4.07673 10.16819-5.27682 25.34448 0.40699 21.70832 8.13018-2.22872 4.73378-2.88106 6.59155-3.17669 9.04667-0.35743 2.96836-1.47603 3.28153-5.0416 1.41149zm-63.00883 51.05372c11.1604-3.24442 18.43051-13.94055 16.7706-24.67372-0.78003-5.0438-2.47705-10.90964-3.4726-12.00319-0.39558-0.43451-2.97573 0.69049-5.73367 2.5-2.75795 1.80953-5.86215 3.78575-6.89823 4.39162-1.54667 0.90444-1.89812 2.3544-1.96389 8.10219-0.1006 8.79286-3.42702 15.15363-10.01364 19.14813-2.40159 1.45646-4.38075 2.9856-4.39813 3.3981-0.0566 1.34375 10.02321 0.78993 15.70956-0.86313zm-25.00552-1.52163c10.16622-2.42137 14.93384-5.39163 17.91852-11.16337 1.77515-3.43276 2.25194-12.19576 0.74553-13.70217-0.64337-0.64337-3.38455-0.4737-7.94111 0.49152-3.82723 0.81073-7.80622 1.48187-8.84221 1.49142-1.03598 0.01-4.08444 2.25318-6.77435 4.98585-6.46264 6.56538-12.629 8.60743-19.60218 6.49145-6.02681-1.82882-6.23985-1.81797-6.23985 0.31755 0 4.351 5.14529 8.30853 13.94113 10.72292 5.99489 1.64554 10.96415 1.75349 16.79452 0.36483zm-32.01106-2.61707c-2.99875-3.31358-3.84457-7.11569-2.54666-11.44772 0.66056-2.20475 1.78153-4.2314 2.49105-4.50367 0.70952-0.27227 3.29485 0.47548 5.74518 1.66167 3.2303 1.56376 5.40293 1.97889 7.90254 1.50996 3.81073-0.7149 9.6833-3.94177 9.6833-5.3208 0-0.48499-8.2125-1.12487-18.25-1.42195-17.73826-0.52501-18.51708-0.63823-27.77492-4.03788-11.65948-4.28158-17.44548-5.25442-21.47508-3.61077l-3 1.22368 4.5 0.83828c3.8485 0.7169 5.6478 2.01043 12.42795 8.93448 4.36037 4.45292 9.41396 9.22966 11.2302 10.61497 4.26035 3.24953 14.02001 7.25739 17.74684 7.28784 2.70486 0.0221 2.79577-0.0969 1.3196-1.72809zm35.27541-26.25834c4.125-0.52163 10.5718-1.68962 14.32623-2.59553 7.08518-1.70959 15.95723-6.7852 16.42105-9.39431 0.30023-1.68889-7.90781-5.19769-16.43853-7.02721-5.85644-1.25598-9.77029-4.5305-10.64551-8.90657-0.32747-1.63736-1.41512-3.17008-2.49213-3.51191-1.05108-0.3336-3.74327-2.61979-5.98265-5.08043-2.23937-2.46063-4.74085-4.47388-5.55882-4.47388-0.81798 0-3.14931-1.56754-5.18074-3.48343-2.03143-1.91588-4.05289-3.26132-4.49212-2.98986-0.43923 0.27146-2.24642 4.87651-4.01597 10.23343-1.76956 5.35692-4.52735 13.06996-6.12843 17.14009-1.60108 4.07013-2.67798 8.00763-2.3931 8.75 0.64957 1.69276 14.50617 1.84494 24.65209 0.27075 9.0052-1.39721 10.91415-0.6625 3.92863 1.51203-3.59754 1.11989-10.12258 1.8554-18.86384 2.12637l-13.36384 0.41427-3.80151 3.26318c-2.09084 1.79475-3.83961 3.60068-3.88616 4.01318-0.12142 1.07581 34.99578 0.86776 43.91535-0.26017zm37.45308-19.09849c2.17419-0.60363 5.39637-2.5408 7.1604-4.30483 13.6112-13.6112-3.33448-35.79125-20.0931-26.29969-12.69648 7.19089-10.5632 26.52796 3.39319 30.75745 3.66738 1.1114 5.0663 1.08897 9.53951-0.15293zm-11.5716-5.39444c-2.78335-1.51258-5.88148-6.95556-5.88148-10.33294 0-3.01105 1.651-6.81497 3.96007-9.12404 3.12902-3.12902 4.78073-2.42259 1.74479 0.74625-7.12797 7.43999-2.68492 18.48655 7.43548 18.48655 2.08697 0 5.04665-0.76496 6.57707-1.6999l2.78259-1.6999-2.80576 2.56353c-3.23549 2.95617-9.44691 3.43303-13.81276 1.06045zm13.99096-19.24691c-1.24387-1.58606-1.2085-1.62143 0.37756-0.37756 1.66575 1.30637 2.19548 2.12756 1.37244 2.12756-0.20765 0-0.99515-0.7875-1.75-1.75zm-26.87244 17.83179c0-2.05149-1.29673-4.08179-2.60699-4.08179-1.70962 0-1.81999 2.17302-0.19301 3.8 1.42624 1.42624 2.8 1.56449 2.8 0.28179zm-0.88738-13.39035c0.94892-3.57379-0.38264-4.13803-7.62881-3.23268-6.02235 0.75244-7.03783 2.32861-3.23381 5.01935 1.37194 0.97044 3.78501 1.48038 6.18344 1.30671 3.36345-0.24355 4.0415-0.6918 4.67918-3.09338zm49.61633-6.40209c7.49125-2.61304 8.45393-2.70408 26.73698-2.52854 18.14865 0.17426 19.06435 0.0896 21.25-1.96367 3.03308-2.84943 2.90527-3.40853-1.22755-5.36968-4.52055-2.14514-8.07084-6.41393-11.12029-13.37077-1.33964-3.05618-3.1815-6.11919-4.09303-6.80669-1.95042-1.47106-26.82526-1.78681-27.71217-0.35176-0.30533 0.49403 1.69311 2.34094 4.44098 4.10425 2.74787 1.7633 4.99613 3.75745 4.99613 4.43145 0 0.71927-3.22181 1.91779-7.79991 2.90157-10.39947 2.23474-16.22262 5.27271-18.59317 9.70018l-1.89307 3.53569 2.89307 4.17636c1.5912 2.297 3.22111 4.19343 3.62203 4.21431 0.40092 0.0209 4.22592-1.18184 8.5-2.6727zm-53.38647 0.0348c0.3717-0.37169-0.30674-1.72169-1.50765-3-1.97062-2.09762-3.05887-2.32418-11.16413-2.32418-8.93979 0-8.97237 0.009-7.15702 2.01511 1.00301 1.10832 3.21025 2.41773 4.90499 2.90981 3.70009 1.07437 13.97385 1.34922 14.92381 0.39926zm9.15752-4.32418c1.77643-1.96293 1.74686-1.99972-1.59501-1.98469-1.87275 0.008-4.07999 0.45842-4.90499 1-1.33333 0.87528-1.33333 1.0941 0 1.96938 2.33179 1.53072 4.52415 1.1986 6.5-0.98469zm-12.5-4.864c0-0.4752-1.6875-2.01097-3.75-3.41283-3.63394-2.46995-4.11367-2.53174-15.5-1.99652-6.4625 0.30377-11.75 0.92372-11.75 1.37765 0 1.15877 3.21033 2.74445 7.69027 3.79847 4.96593 1.16835 23.30973 1.3519 23.30973 0.23323zm38.89709-2.99148c1.1183-1.57051 2.57708-4.88868 3.24172-7.37371 3.70556-13.85466-11.59449-20.99138-49.98397-23.31511-12.29127-0.74399-38.43161 0.28746-37.69014 1.48718 0.25101 0.40615 11.06264 1.04531 24.02585 1.42036 31.44234 0.90968 45.83728 3.67235 50.97993 9.78405 3.24642 3.85815 3.24507 8.02447-0.005 14.12896-1.85994 3.49389-2.19249 4.86741-1.25 5.16281 0.70627 0.22137 1.95912 0.62761 2.78412 0.90276 3.58703 1.19635 5.94846 0.5393 7.89709-2.1973zm-14.93605-0.33308c4.23283-4.54341 3.02149-5.16781-8.71104-4.49024-5.9125 0.34146-11.7809 0.91617-13.04089 1.27714-6.04279 1.73118 2.71171 5.18137 13.50193 5.32118 5.16381 0.0669 6.55484-0.28853 8.25-2.10808zm-30.52387-5.70977c0.30536-0.49408-0.74433-2.28948-2.33264-3.98977l-2.88783-3.09143-20.35835-0.44176c-11.19709-0.24298-22.38335-0.88353-24.85835-1.42346-5.03751-1.09895-5.82974-0.85995-4.09159 1.23439 1.91333 2.30543 9.27693 5.37778 16.70833 6.97132 7.6676 1.64418 36.90812 2.21685 37.82043 0.74071zm64.33908-2.65639c3.45194-0.98328 6.13967-2.19753 5.97273-2.69834-0.16694-0.50081-2.99125-2.36384-6.27625-4.14005-3.285-1.77622-5.97273-3.6519-5.97273-4.16819 0-0.52681 7.24007-1.1581 16.5-1.4387 10.07594-0.30533 16.47124-0.88934 16.42612-1.5-0.0406-0.55-2.39144-2.88923-5.22402-5.19829-5.67826-4.62879-16.04102-8.43843-28.49713-10.47633-15.21125-2.48866-43.70497-1.06901-43.70497 2.17752 0 0.40864 3.95406 1.46639 8.7868 2.35055 22.19289 4.06024 31.19227 10.20903 32.03713 21.88923 0.35292 4.87897 0.71511 5.84212 2.05231 5.45747 0.89307-0.2569 4.44807-1.2716 7.90001-2.25487zm-33.27625-0.26475c3.40505-0.59947 4.04706-1.11148 4.31642-3.44237l0.31642-2.73816-7.99406 0c-7.44587 0-21.38197 1.43749-25.38878 2.61882-2.55245 0.75254-2.14284 2.07104 1 3.2189 3.16541 1.1561 21.82132 1.38657 27.75 0.34281zm-37.5-8.05809c0-0.48265-0.70393-1.46176-1.56429-2.17579-0.9863-0.81856-1.35082-2.14873-0.98657-3.60003 0.78-3.10779 0.65849-3.12338-29.44914-3.77975-14.025-0.30575-27.4125-0.84263-29.75-1.19306-13.03887-1.95475 5.83156 8.28959 19.51339 10.59338 6.55136 1.10315 42.23661 1.23432 42.23661 0.15525zm28.85331-0.7649c3.38068-0.35335 6.14669-1.01578 6.14669-1.47206 0-0.45629-2.49985-1.55634-5.55522-2.44456-5.74728-1.67078-26.42781-1.79927-28.04736-0.17425-3.2595 3.2705 12.63977 5.63946 27.45589 4.09087z" fill="#000"/>
    <g id="g3142" fill="#fff">
      <path transform="translate(610.70891,197.71511)" id="path3102" d="m67.71805 150.22952c-0.157042-0.2541 1.231399-1.83108 3.085424-3.50441 3.869849-3.49268 3.174228-3.3395 17.566895-3.86835 4.428619-0.16273 9.7698-0.50798 11.869291-0.76722 4.85925-0.60001 10.63579-2.40896 10.63579-3.33064 0-0.86756-0.006-0.86746-8.15945 0.13168-8.242967 1.01009-21.891831 1.16213-23.538638 0.26221-1.46414-0.80011-1.650447-0.0917 4.802305-18.26077 5.333919-15.01877 6.401972-17.67766 7.100963-17.67766 0.21026 0 1.859897 1.22647 3.665861 2.72549 1.805964 1.49903 4.072116 3.05498 5.035893 3.45767 0.963776 0.40269 3.569886 2.41999 5.791346 4.48289 2.22147 2.06289 4.87203 4.36761 5.89014 5.12159 1.29861 0.96171 2.09932 2.11818 2.68274 3.87471 1.63582 4.92497 4.20438 6.74212 12.94107 9.15528 6.66193 1.84009 12.94046 4.5705 13.42734 5.8393 0.69238 1.80431-6.55593 6.48049-13.47713 8.69465-4.81958 1.54183-13.54995 3.09102-20.45559 3.62979-7.873323 0.61428-38.489039 0.6409-38.86425 0.0338l0 0z" style="fill-opacity:1;fill:#fff"/>
      <path transform="translate(610.70891,197.71511)" id="path3104" d="m95.484867 179.41262c-1.658917-0.23567-4.748991-1.00555-6.866832-1.71086-7.249239-2.41422-11.582696-5.95445-11.582696-9.46252 0-1.71023 0.0969-1.71251 6.992744-0.16436 6.778562 1.52182 11.072332-0.0556 18.960547-6.96556 5.33852-4.67647 4.70033-4.41139 14.70535-6.10813 8.72848-1.48026 9.16134-1.19761 8.67697 5.66595-0.67204 9.52289-5.57392 14.5296-17.11402 17.48003-5.70773 1.45928-9.776145 1.83311-13.772063 1.26545z" style="fill-opacity:1;fill:#fff"/>
      <path transform="translate(610.70891,197.71511)" id="path3106" d="m70.587191 177.18298c-3.76194-1.01283-9.183148-3.39221-12.362029-5.42572-1.492131-0.9545-6.46725-5.35978-11.05582-9.7895-4.588569-4.42972-9.150012-8.55288-10.13654-9.16259-0.986528-0.60971-3.242363-1.41338-5.012967-1.78594l-3.21928-0.67738 2.817113-0.84584c3.946208-1.18485 7.910873-0.52729 19.424055 3.22162 10.877914 3.54205 12.611476 3.81223 29.024074 4.5234 6.805903 0.29491 13.721058 0.68041 15.367011 0.85667l2.992643 0.32046-1.224876 1.00837c-0.673681 0.5546-2.655666 1.68339-4.404406 2.50841-4.1749 1.96964-6.768053 1.95223-11.859636-0.0796-5.442138-2.17177-6.247472-2.10063-7.468517 0.65975-2.152565 4.86623-1.909792 8.91422 0.773779 12.90199l1.715081 2.5486-1.354804-0.0332c-0.745143-0.0183-2.551839-0.35552-4.014881-0.74942z" style="fill-opacity:1;fill:#fff"/>
      <path transform="translate(610.70891,197.71511)" id="path3108" d="m92.187627 196.30619c-3.483847-0.57862-9.529185-2.36656-12.394458-3.66574-4.855337-2.20151-14.570672-9.59631-13.722299-10.44469 0.162874-0.16287 4.003394 0.0731 8.53449 0.52448 4.531096 0.45134 13.69318 1.15405 20.360187 1.56158 6.667003 0.40753 14.621953 1.18016 17.677673 1.71696 3.05571 0.53679 7.94232 1.14579 10.85914 1.35331l5.3033 0.37732-4.04061 1.93234c-4.87567 2.33169-14.19793 5.3444-19.42048 6.27617-3.59726 0.64181-10.368762 0.83134-13.156943 0.36827z" style="fill-opacity:1;fill:#fff"/>
      <path transform="translate(610.70891,197.71511)" id="path3110" d="m117.74001 181.57565c-0.20586-0.33308 0.63611-1.24121 2.05239-2.21366 8.20167-5.63145 10.53785-9.76313 11.32931-20.03669 0.24409-3.1685 0.57639-6.17863 0.73843-6.68918 0.47828-1.50693 12.8961-9.14334 13.64708-8.39236 0.19978 0.19978 0.92119 2.24364 1.60315 4.54192 1.69933 5.72696 2.06997 12.47656 0.88413 16.10082-2.62769 8.03099-9.13876 13.84604-17.75355 15.85573-4.40496 1.02761-12.0653 1.53831-12.50094 0.83342z" style="fill-opacity:1;fill:#fff"/>
      <path transform="translate(610.70891,197.71511)" id="path3112" d="m178.05059 183.56526c-19.85052-6.68645-26.76904-9.56712-26.76904-11.14584 0-0.44799 0.47746-2.96308 1.06102-5.5891 1.53617-6.91279 1.13905-13.43254-1.27531-20.93702-1.76821-5.49609-2.13237-7.32361-1.45937-7.32361 0.19066 0 2.55444 1.25007 5.25286 2.77792 7.2047 4.07934 7.79252 3.82147 4.00448-1.75667-3.335-4.91101-3.34853-5.06603-0.76042-8.71458 3.10061-4.37105 4.99656-8.09677 6.23743-12.25718 1.40242-4.70208 2.06913-5.53001 6.07941-7.54955 6.99921-3.52475 20.96764-5.1589 32.00165-3.74384 4.18825 0.53712 4.47309 0.64764 4.23061 1.64149-0.14299 0.58608-0.41442 3.00806-0.60317 5.38217-0.51874 6.52485 0.42519 12.08153 3.81407 22.45248 1.63392 5.00025 3.10491 9.57281 3.26886 10.16124 0.49338 1.77077-1.67438 2.73175-7.47259 3.31266-2.82291 0.28282-5.53076 0.72733-6.01746 0.9878-1.33491 0.71442-1.06543 1.75595 0.63675 2.46101 1.74682 0.72356 2.29851 2.21341 1.54932 4.18393-0.48342 1.27149-0.72882 1.36898-3.43728 1.36544-7.20167-0.009-14.45747-2.29952-15.07447-4.75787-0.41216-1.64215-1.43535-1.64525-3.57817-0.0108-3.15587 2.4071-2.58324 2.93574 6.26578 5.7845 4.37522 1.40851 8.91843 2.69672 10.09603 2.86268 2.34596 0.33062 3.33905 1.14758 3.07318 2.52811-0.27349 1.42011-2.40613 2.1676-6.22442 2.18165l-3.53553 0.013 2.75693 2.44057 2.75693 2.44058 0.20071 3.55206c0.14645 2.5917-0.023 4.01282-0.62676 5.25627-1.01101 2.08219-4.74464 4.98891-6.39993 4.98249-0.66729-0.003-5.19074-1.34449-10.0521-2.98199zm21.51868-52.95825c0.30691-0.20409 0.85366-1.62114 1.215-3.14899 0.36134-1.52786 1.32647-4.35366 2.14473-6.27957 2.36667-5.57033 1.221-8.45893-4.35593-10.98264-2.18696-0.98966-3.42145-1.17238-7.89557-1.16862-4.65319 0.004-5.64383 0.16515-8.08122 1.31537-1.52786 0.721-3.34613 1.78247-4.04061 2.35881-2.34444 1.94561-0.91948 2.35541 9.16167 2.63482 8.88631 0.24628 9.13632 0.28278 10.10054 1.47446 2.43247 3.00629-0.11049 4.39581-8.90815 4.86757-8.23378 0.44153-9.34391 0.65045-9.34391 1.75849 0 1.98284 2.14613 2.67712 7.32104 2.36838l4.75055-0.28342 1.00064 1.69595c1.45988 2.47432 5.40571 4.40384 6.93122 3.38939z" style="fill-opacity:1;fill:#fff"/>
      <path transform="translate(610.70891,197.71511)" id="path3114" d="m139.67704 131.17418c-7.43233-1.94393-11.98665-7.34683-12.52404-14.85757-0.48086-6.72067 2.56084-12.34309 8.40786-15.54147 6.44634-3.526203 13.5904-2.587516 18.78032 2.46762 4.57879 4.45989 6.45135 10.71501 4.84129 16.1719-2.39168 8.10599-11.79624 13.77585-19.50543 11.75952zm8.32152-4.91991c1.38896-0.65663 3.20723-1.93438 4.04061-2.83945 0.83337-0.90507 1.28794-1.54738 1.01015-1.42735-0.27779 0.12003-1.84561 0.84381-3.48405 1.6084-6.5992 3.07959-13.23045 1.03285-15.68474-4.84109-1.54311-3.69318-0.65924-7.5391 2.68787-11.69553 1.81459-2.25335 1.95137-2.83474 0.6669-2.83474-1.36009 0-4.12916 2.93993-5.47082 5.80837-1.74429 3.7293-1.61344 7.14736 0.41966 10.96184 2.45206 4.60054 5.32231 6.35322 10.51111 6.41849 1.92854 0.0243 3.55009-0.3301 5.30331-1.15894l0 0zm4.79822-18.45757c0-0.55493-2.45437-2.56204-3.13296-2.56204-0.25925 0 0.0142 0.68185 0.60758 1.51523 1.02247 1.43593 2.52538 2.05891 2.52538 1.04681z" style="fill-opacity:1;fill:#fff"/>
      <path transform="translate(610.70891,197.71511)" id="path3116" d="M68.447045 75.460023C64.417964 75.24418 59.490792 74.696698 57.497774 74.243396 50.569946 72.667695 40.846735 68.61225 37.891928 66.066012l-1.515229-1.305714 6.313454 0.295942c3.472399 0.162768 16.995816 0.631737 30.052038 1.042152 13.056222 0.410415 24.420438 0.93273 25.253814 1.1607 1.33428 0.364992 1.545386 0.681903 1.767766 2.653781 0.138896 1.23161 0.681079 2.871416 1.204839 3.644013 0.52376 0.772598 0.81494 1.542087 0.64704 1.709977-0.48305 0.483057-25.082972 0.626317-33.168605 0.19316l0 0z" style="fill-opacity:1;fill:#fff"/>
      <path transform="translate(610.70891,197.71511)" id="path3118" d="m164.22057 84.452223c-0.13106-0.65361-0.48062-2.813712-0.77681-4.800228-0.75149-5.040195-2.11638-7.883426-5.20766-10.848169-4.73477-4.540962-11.96345-7.357413-27.41014-10.679595-4.16688-0.896187-7.57614-1.831629-7.57614-2.078759 0-0.726508 3.99449-1.69794 9.39988-2.285983 6.36467-0.692402 23.12329-0.710082 28.74663-0.03033 12.6588 1.530212 24.83971 5.316046 31.2296 9.706181 2.7562 1.893631 6.63787 5.386079 6.63787 5.97228 0 0.614604-2.97147 0.90163-17.9006 1.729087-7.4841 0.414811-13.81689 0.963644-14.07287 1.219627-0.76596 0.765956-0.0738 1.35091 5.47996 4.631265 5.72071 3.378953 6.28675 3.874513 5.21875 4.568861-0.87406 0.56825-9.63798 3.353957-11.86754 3.772226-1.45843 0.273603-1.69191 0.165954-1.90093-0.876467z" style="fill-opacity:1;fill:#fff"/>
      <path transform="translate(610.70891,197.71511)" id="path3120" d="m160.62907 102.9887c-1.52984-2.06865-2.76366-4.057391-2.74183-4.419417 0.0218-0.362026 0.66108-1.681008 1.42053-2.931072 2.68225-4.414993 7.57372-7.020043 18.49029-9.84737 9.6362-2.49572 9.75038-2.76236 3.2542-7.599199-3.16067-2.353331-4.41248-3.568003-4.05032-3.930162 0.73146-0.73146 13.27429-1.018749 20.11299-0.460682 6.75311 0.551083 6.96139 0.687178 9.84466 6.432587 2.4493 4.880659 5.87688 10.237863 7.43249 11.616754 0.62679 0.555584 2.53642 1.817921 4.24361 2.805193 3.68739 2.132415 3.88469 3.017271 1.16398 5.220341l-1.94002 1.570917-19.27318 0.30412c-10.60025 0.16726-19.8414 0.47718-20.53588 0.68872-0.69448 0.21153-4.07587 1.26792-7.51421 2.34753-3.43834 1.07961-6.44824 1.96293-6.68865 1.96293-0.24042 0-1.68882-1.69254-3.21866-3.76119z" style="fill-opacity:1;fill:#fff"/>
      <path transform="translate(610.70891,197.71511)" id="path3122" d="m145.34691 93.998356c-0.90283-0.289619-1.6415-0.823618-1.6415-1.186666 0-0.363047 0.79783-2.474678 1.77295-4.692512 2.26178-5.144226 2.6695-7.950547 1.57244-10.823163C143.82907 68.860034 131.49112 65.83601 94.207932 64.344262 87.124238 64.060834 78.942002 63.67105 76.025187 63.478076 71.46621 63.176457 71.005438 63.069933 72.742191 62.719093c3.918857-0.791644 31.413439-1.103125 39.395949-0.446309 27.08366 2.228494 40.96993 6.721325 44.72057 14.46911 1.51313 3.125712 1.1909 7.274556-0.927 11.935568-2.17145 4.778832-3.48134 5.963749-6.52124 5.899034-1.33214-0.02836-3.16074-0.288522-4.06356-0.57814z" style="fill-opacity:1;fill:#fff"/>
      <path transform="translate(610.70891,197.71511)" id="path3124" d="m113.54982 74.397168c-4.64868-0.52802-9.32301-1.923145-9.62672-2.873242-0.11045-0.34553 0.43369-0.86948 1.20921-1.164332 1.79329-0.681808 19.60344-0.682941 23.63039-0.0015 3.42751 0.580001 7.73916 1.928714 8.11622 2.538809 0.77908 1.260585-15.96129 2.33714-23.3291 1.500268l0 0z" style="fill-opacity:1;fill:#fff"/>
      <path transform="translate(610.70891,197.71511)" id="path3126" d="m118.95667 83.514799c-5.72839-0.331554-9.52185-1.418654-8.83402-2.531585 0.86779-1.404113 12.15323-2.946534 24.61765-3.364581l9.47018-0.317622 0 1.615414c0 2.598891-1.76571 3.945602-5.61137 4.279811-6.0848 0.528802-13.83765 0.654539-19.64244 0.318563z" style="fill-opacity:1;fill:#fff"/>
      <path transform="translate(610.70891,197.71511)" id="path3128" d="m129.0582 93.788691c-6.59957-0.514037-12.62691-2.179552-12.62691-3.489154 0-0.977258 2.85831-1.592072 10.2553-2.205886 7.76876-0.644663 12.98448-0.677236 13.91614-0.08691 1.89873 1.203089-2.31441 5.60681-5.37492 5.618059-1.03206 0.0038-2.33104 0.08205-2.88662 0.173908-0.55558 0.09186-2.03293 0.08735-3.28299-0.01002z" style="fill-opacity:1;fill:#fff"/>
      <path transform="translate(610.70891,197.71511)" id="path3130" d="m122.1134 101.17831c-1.57532-0.6332-1.42001-1.301813 0.45417-1.955156 1.9396-0.676147 5.98555-0.732793 5.98555-0.0838 0 0.800614-2.86912 2.561528-4.11858 2.527758-0.6516-0.0176-1.69611-0.23757-2.32114-0.4888z" style="fill-opacity:1;fill:#fff"/>
      <path transform="translate(610.70891,197.71511)" id="path3132" d="m114.36048 113.49222c-0.72226-0.12585-2.08106-0.86985-3.01954-1.65333-1.45732-1.21662-1.61014-1.54045-1.04711-2.21886 0.88727-1.06909 5.37835-1.94777 8.99699-1.76026 2.88487 0.14949 2.95214 0.18652 3.1006 1.70689 0.2393 2.45075-1.23437 3.85201-4.22447 4.01689-1.3713 0.0756-3.08422 0.0345-3.80647-0.0913z" style="fill-opacity:1;fill:#fff"/>
      <path transform="translate(610.70891,197.71511)" id="path3134" d="m121.02842 123.72471c-1.1789-1.25488-1.28308-2.84369-0.20991-3.201 0.6661-0.22177 2.00784 1.61086 2.26514 3.09384 0.24954 1.43827-0.75548 1.49067-2.05523 0.10716z" style="fill-opacity:1;fill:#fff"/>
      <path transform="translate(610.70891,197.71511)" id="path3136" d="m105.82469 104.25508c-2.27868-0.46191-5.54354-2.15562-6.770544-3.51236l-0.962164-1.063899 7.932048 0c5.93848 0 8.28771 0.183923 9.34718 0.731799 1.40393 0.726 3.08038 2.79198 3.08038 3.79612 0 0.59289-9.75625 0.63024-12.6269 0.0483z" style="fill-opacity:1;fill:#fff"/>
      <path transform="translate(610.70891,197.71511)" id="path3138" d="M94.100122 95.092014C90.781059 94.605475 85.534759 92.633868 85.252608 91.767037 84.972207 90.905581 90.51157 90.389548 100.35538 90.3601l8.42029-0.02519 2.91424 2.057513c1.60283 1.131631 3.00336 2.324874 3.11228 2.65165 0.23466 0.703968-15.970784 0.741496-20.702068 0.04794l0-0.000001z" style="fill-opacity:1;fill:#fff"/>
      <path transform="translate(610.70891,197.71511)" id="path3140" d="M83.853869 86.546496C79.68699 86.314705 74.774205 85.879568 72.93657 85.579523 66.023995 84.450852 57.264782 80.881236 54.811983 78.193264l-1.26269-1.383756 2.272843 0.358173c5.674591 0.894248 12.090564 1.297965 29.2743 1.842047 12.152356 0.384775 18.699684 0.779767 19.170654 1.15654 1.72414 1.379287 4.61229 5.548211 4.15825 6.002247-0.66149 0.661496-15.399196 0.888205-24.571471 0.377981l0 0z" style="fill-opacity:1;fill:#fff"/>
    </g>
  </g>
</svg>
