<svg xmlns:svg="http://www.w3.org/2000/svg" xmlns="http://www.w3.org/2000/svg" width="150" height="150" id="svg3182" version="1.1"><defs id="defs3184"><filter id="filter3981" x="-0.10786675" width="1.2157335" y="-0.13520879" height="1.2704176" color-interpolation-filters="sRGB"><feGaussianBlur stdDeviation="5.3408145" id="feGaussianBlur3983"/></filter><filter id="filter5058" x="-0.13163987" width="1.2632797" y="-0.11025135" height="1.2205027"><feGaussianBlur stdDeviation="4.8109131" id="feGaussianBlur5060"/></filter></defs><metadata id="metadata3187"/><g transform="translate(-2.921107,4.6935485)" id="g4546" style="fill:#fff;filter:url(#filter5058);font-family:Sans;font-size:40px;letter-spacing:0px;line-height:125%;word-spacing:0px"><path id="path4548" d="m34.065884 122.66949 0-104.726077 22.253906 0 0 38.223633 43.198242 0 0-38.223633 22.258298 0 0 104.726077-22.258298 0 0-49.223148-43.198242 0 0 49.223148z" style="-inkscape-font-specification:InputSans Bold;fill:#fff;font-family:InputSans;font-size:144px;font-weight:bold"/></g><g id="text4539" transform="translate(-2.921107,4.6935485)" style="fill:#000;font-family:Sans;font-size:40px;letter-spacing:0px;line-height:125%;word-spacing:0px"><path d="m34.065884 122.66949 0-104.726077 22.253906 0 0 38.223633 43.198242 0 0-38.223633 22.258298 0 0 104.726077-22.258298 0 0-49.223148-43.198242 0 0 49.223148z" id="path4544" style="-inkscape-font-specification:InputSans Bold;font-family:InputSans;font-size:144px;font-weight:bold"/></g></svg>