<svg xmlns:svg="http://www.w3.org/2000/svg" xmlns="http://www.w3.org/2000/svg" width="975.80731" height="264.65997" id="svg2" version="1.1">
  <defs id="defs4">
    <filter id="filter4599">
      <feGaussianBlur stdDeviation="3.7559327" id="feGaussianBlur4601"/>
    </filter>
  </defs>
  <metadata id="metadata7"/>
  <g id="layer1" transform="translate(6.0609155,-173.29961)">
    <g id="g3056" transform="translate(0.85892883,6.7984538e-6)">
      <path id="path3046" d="m98.736774 382.30215c-2.88713-0.77744-7.14206-2.37913-9.455403-3.55931-4.894671-2.49707-14.95341-11.79733-17.878702-16.53055-1.112345-1.79981-4.16012-4.84158-6.772833-6.75949-2.612713-1.91791-6.75139-6.02196-9.19706-9.12011-5.909449-7.48604-8.305807-8.63387-17.516196-8.39009-4.108923 0.10875-7.767725-0.0992-8.130673-0.46217-1.198504-1.19851 5.210029-9.07462 9.241788-11.3582 5.187296-2.93808 13.887113-3.00406 23.047178-0.17481 5.705853 1.76236 7.40431 1.91891 10.560269 0.97336 8.536431-2.55757 12.751244-9.14801 20.777492-32.48845l5.12891-14.91496-3.72486-3.08504c-2.74451-2.27308-5.5054-3.39482-10.489976-4.26202-9.144829-1.59101-18.260879-5.83928-22.153881-10.32418-1.752698-2.01918-6.066291-5.19339-9.585763-7.0538-4.261082-2.25243-7.465825-4.85257-9.591991-7.78238-3.450988-4.75539-6.073673-10.93129-5.068845-11.93612 0.343048-0.34305 4.44928 0.17139 9.124959 1.1432 7.57598 1.57461 12.170901 1.6936 42.218076 1.09333 33.377757-0.6668 33.754567-0.69781 37.468347-3.08351 9.70936-6.2372 12.7858-6.88597 32.24849-6.80065 22.0348 0.0966 33.66833 2.21043 46.14751 8.38505 9.91452 4.90565 16.23828 11.40064 22.13442 22.73376 5.37548 10.33235 6.96548 11.682 14.49305 12.30228 3.33737 0.275 6.23945 1.02099 6.44907 1.65776 0.20961 0.63676-2.59858 4.57426-6.24043 8.75-6.35703 7.28893-6.79622 7.59224-10.99357 7.59224-2.40461 0-4.65088 0.45122-4.99172 1.00271-0.34084 0.55148-0.98622 3.32123-1.43418 6.15498-0.93892 5.93962 0.42039 12.89402 4.43784 22.70453 1.60113 3.90992 2.48831 7.7644 2.30168 10-0.2668 3.19613-0.85 3.91181-4.80367 5.89492-3.95954 1.98605-4.83201 3.05943-7.26443 8.93721-1.52044 3.67403-3.47533 7.4656-4.34421 8.42569-1.09658 1.21171-1.37704 2.66868-0.91695 4.76346 0.94236 4.29052-2.44615 11.5334-6.33711 13.5455-4.24481 2.19508-6.50526 1.99735-16.69971-1.46077-13.6196-4.61999-18.3168-4.81711-28.47944-1.19515-4.65198 1.65796-13.40815 5.26017-19.45815 8.0049-17.39179 7.89022-31.71644 10.05169-44.249326 6.67688zM125.53154 375.458c4.69999-1.30045 10.72754-3.47343 13.39456-4.82885l4.84912-2.46439-8.40741-0.59332c-4.62407-0.32633-9.58018-1.03921-11.01358-1.58419-1.4334-0.54497-10.20262-1.29154-19.48715-1.65903-9.284536-0.3675-18.6139-1.10562-20.731918-1.64028-2.118018-0.53465-4.143018-0.67328-4.5-0.30805-1.254829 1.2838 8.974065 9.37067 14.630572 11.56679 11.140236 4.32517 19.615536 4.73484 31.265806 1.51132zm80.87783-10.1996c2.65326-2.23257 3.07673-3.25336 3.07673-7.4166 0-4.10252-0.41308-5.13589-2.75-6.87942l-2.75-2.05173 3.16821-0.0317c4.49126-0.0449 6.33179-0.95726 6.33179-3.13867 0-1.28678-0.72055-1.90346-2.25-1.92566-1.2375-0.0179-4.725-0.94421-7.75-2.05835-3.025-1.11414-6.85-2.3554-8.5-2.75835-3.59834-0.87876-3.77761-1.89039-0.69741-3.93557 2.13935-1.42047 2.34063-1.38339 2.83918 0.52303 0.63085 2.41239 6.38094 4.30864 13.89272 4.58151 4.75591 0.17277 4.97917 0.0612 5.28911-2.64399 0.2502-2.18378-0.15599-2.94979-1.79089-3.37733-3.75184-0.98113-1.49432-2.79641 3.55925-2.86201 6.32949-0.0821 9.40983-1.14827 9.4009-3.25368-0.004-0.92541-1.63171-5.95759-3.61728-11.18259-3.61731-9.5189-4.57447-16.60775-3.37558-25l0.5-3.5-6.5-0.88705c-8.9139-1.21648-23.8084 0.57214-29.78857 3.57719-5.06439 2.54486-5.52052 3.17473-7.25476 10.018-0.65623 2.58948-2.71494 6.48601-4.57491 8.65896-1.85997 2.17296-3.36924 4.55429-3.35394 5.29186 0.0153 0.73757 1.3631 3.10575 2.9951 5.26261 1.632 2.15686 2.74925 4.13959 2.48278 4.40606-0.26647 0.26648-2.76917-0.93573-5.56154-2.67156-7.64366-4.75156-8.02291-4.50018-5.04491 3.34393 3.00051 7.90337 3.56817 15.38032 1.66479 21.92771-0.90189 3.10238-1.36698 6.08212-1.03354 6.62164 0.33345 0.53953 2.26299 1.69743 4.28788 2.57313 4.79246 2.07258 31.33156 11.20089 32.85489 11.30067 0.64531 0.0423 2.55781-1.08815 4.25-2.51204zm2.82673-55.07795c-1.5125-0.79326-2.75-2.15071-2.75-3.01656 0-1.31465-0.83961-1.46288-5.09142-0.89886-3.34988 0.44438-5.57324 0.27553-6.5-0.49361-2.58672-2.14679-1.45561-2.92366 4.34142-2.98176 7.37906-0.074 13.4908-1.16476 13.93135-2.48642 0.19008-0.57025-0.27183-1.88123-1.02648-2.91327-1.19428-1.63328-2.63184-1.85632-11.09296-1.72113-10.6403 0.17001-11.78667-0.71145-5.30194-4.07673 10.16819-5.27682 25.34448 0.40699 21.70832 8.13018-2.22872 4.73378-2.88106 6.59155-3.17669 9.04667-0.35743 2.96836-1.47603 3.28153-5.0416 1.41149zm-63.00883 51.05371c11.1604-3.24442 18.43051-13.94055 16.7706-24.67372-0.78003-5.0438-2.47705-10.90963-3.4726-12.00318-0.39558-0.43451-2.97573 0.69049-5.73367 2.5-2.75795 1.80952-5.86215 3.78574-6.89823 4.39161-1.54667 0.90444-1.89812 2.3544-1.96389 8.10219-0.1006 8.79286-3.42702 15.15363-10.01364 19.14813-2.40159 1.45646-4.38075 2.9856-4.39813 3.3981-0.0566 1.34375 10.02321 0.78993 15.70956-0.86313zm-25.00552-1.52163c10.16622-2.42137 14.93384-5.39163 17.91852-11.16337 1.77515-3.43276 2.25194-12.19576 0.74553-13.70217-0.64337-0.64337-3.38455-0.4737-7.94111 0.49152-3.82723 0.81073-7.80622 1.48187-8.84221 1.49142-1.03598 0.01-4.08444 2.25318-6.77435 4.98585-6.46264 6.56538-12.629 8.60743-19.602176 6.49145-6.02681-1.82882-6.23985-1.81797-6.23985 0.31755 0 4.351 5.14529 8.30853 13.941126 10.72292 5.99489 1.64554 10.96415 1.75349 16.79452 0.36483zm-32.011055-2.61707c-2.99875-3.31358-3.844566-7.11569-2.546658-11.44772 0.660559-2.20475 1.781532-4.2314 2.491051-4.50367 0.709516-0.27227 3.294846 0.47548 5.745176 1.66167 3.2303 1.56376 5.402926 1.97889 7.902536 1.50996 3.81073-0.7149 9.6833-3.94177 9.6833-5.3208 0-0.48499-8.2125-1.12487-18.249996-1.42195C76.497844 337.04794 75.71902 336.93472 66.461186 333.53507 54.801709 329.25349 49.0157 328.28065 44.986104 329.9243l-3 1.22368 4.5 0.83828c3.848496 0.7169 5.647798 2.01043 12.427947 8.93448 4.36037 4.45292 9.41396 9.22966 11.230199 10.61497 4.260355 3.24953 14.020017 7.25739 17.746842 7.28784 2.704862 0.0221 2.795772-0.0969 1.319603-1.72809zM124.4861 330.83712c4.125-0.52163 10.5718-1.68962 14.32623-2.59553 7.08518-1.70958 15.95723-6.78519 16.42105-9.3943 0.30023-1.68889-7.90781-5.19769-16.43853-7.02721-5.85644-1.25598-9.77029-4.5305-10.64551-8.90657-0.32747-1.63736-1.41512-3.17008-2.49213-3.51191-1.05108-0.3336-3.74327-2.61979-5.98265-5.08043-2.23937-2.46063-4.74085-4.47388-5.55882-4.47388-0.81798 0-3.14931-1.56754-5.18074-3.48343-2.03143-1.91588-4.05289-3.26132-4.49212-2.98986-0.43923 0.27146-2.24642 4.87651-4.01597 10.23343-1.769556 5.35692-4.527346 13.06996-6.128426 17.14009-1.60108 4.07013-2.67798 8.00763-2.3931 8.75 0.64957 1.69276 14.506166 1.84494 24.652086 0.27075 9.0052-1.39721 10.91415-0.6625 3.92863 1.51203-3.59754 1.11989-10.12258 1.8554-18.86384 2.12637l-13.363834 0.41427-3.801515 3.26318c-2.090833 1.79474-3.839606 3.60067-3.886161 4.01317-0.121417 1.07581 34.99578 0.86776 43.91535-0.26017zm37.45308-19.09848c2.17419-0.60363 5.39637-2.5408 7.1604-4.30483 13.6112-13.6112-3.33448-35.79125-20.0931-26.29969-12.69648 7.19089-10.5632 26.52796 3.39319 30.75745 3.66738 1.1114 5.0663 1.08897 9.53951-0.15293zm-11.5716-5.39444c-2.78335-1.51258-5.88148-6.95556-5.88148-10.33294 0-3.01105 1.651-6.81497 3.96007-9.12404 3.12902-3.12902 4.78073-2.42259 1.74479 0.74625-7.12797 7.43999-2.68492 18.48655 7.43548 18.48655 2.08697 0 5.04665-0.76496 6.57707-1.6999l2.78259-1.6999-2.80576 2.56353c-3.23549 2.95617-9.44691 3.43303-13.81276 1.06045zm13.99096-19.24691c-1.24387-1.58606-1.2085-1.62143 0.37756-0.37756 1.66575 1.30637 2.19548 2.12756 1.37244 2.12756-0.20765 0-0.99515-0.7875-1.75-1.75zm-26.87244 17.83179c0-2.05149-1.29673-4.08179-2.60699-4.08179-1.70962 0-1.81999 2.17302-0.19301 3.8 1.42624 1.42624 2.8 1.56449 2.8 0.28179zm-0.88738-13.39035c0.94892-3.57379-0.38264-4.13803-7.62881-3.23268-6.02235 0.75244-7.03783 2.32861-3.23381 5.01935 1.37194 0.97044 3.78501 1.48038 6.18344 1.30671 3.36345-0.24355 4.0415-0.6918 4.67918-3.09338zm49.61633-6.40209c7.49125-2.61304 8.45393-2.70408 26.73698-2.52854 18.14865 0.17426 19.06435 0.0896 21.25-1.96367 3.03308-2.84943 2.90527-3.40853-1.22755-5.36968-4.52055-2.14514-8.07084-6.41393-11.12029-13.37077-1.33964-3.05618-3.1815-6.11919-4.09303-6.80669-1.95042-1.47106-26.82526-1.78681-27.71217-0.35176-0.30533 0.49403 1.69311 2.34094 4.44098 4.10425 2.74787 1.7633 4.99613 3.75745 4.99613 4.43145 0 0.71927-3.22181 1.91779-7.79991 2.90157-10.39947 2.23474-16.22262 5.27271-18.59317 9.70018l-1.89307 3.53569 2.89307 4.17636c1.5912 2.297 3.22111 4.19343 3.62203 4.21431 0.40092 0.0209 4.22592-1.18184 8.5-2.6727zm-53.38647 0.0348c0.3717-0.37169-0.30674-1.72169-1.50765-3-1.97062-2.09762-3.05887-2.32418-11.16413-2.32418-8.93979 0-8.97237 0.009-7.15702 2.01511 1.00301 1.10832 3.21025 2.41773 4.90499 2.90981 3.70009 1.07437 13.97385 1.34922 14.92381 0.39926zm9.15752-4.32418c1.77643-1.96293 1.74686-1.99972-1.59501-1.98469-1.87275 0.008-4.07999 0.45842-4.90499 1-1.33333 0.87528-1.33333 1.0941 0 1.96938 2.33179 1.53072 4.52415 1.1986 6.5-0.98469zm-12.5-4.864c0-0.4752-1.6875-2.01097-3.75-3.41283-3.63394-2.46995-4.11367-2.53174-15.5-1.99652-6.4625 0.30377-11.749996 0.92372-11.749996 1.37765 0 1.15877 3.210326 2.74445 7.690266 3.79847 4.96593 1.16835 23.30973 1.3519 23.30973 0.23323zm38.89709-2.99148c1.1183-1.57051 2.57708-4.88868 3.24172-7.37371 3.70556-13.85466-11.59449-20.99138-49.98397-23.31511-12.29127-0.74399-38.431607 0.28746-37.690135 1.48718 0.25101 0.40615 11.062639 1.04531 24.025845 1.42036 31.44234 0.90968 45.83728 3.67235 50.97993 9.78405 3.24642 3.85815 3.24507 8.02447-0.005 14.12896-1.85994 3.49389-2.19249 4.86741-1.25 5.16281 0.70627 0.22137 1.95912 0.62761 2.78412 0.90276 3.58703 1.19635 5.94846 0.5393 7.89709-2.1973zm-14.93605-0.33308c4.23283-4.54341 3.02149-5.16781-8.71104-4.49024-5.9125 0.34146-11.7809 0.91617-13.04089 1.27714-6.04279 1.73118 2.71171 5.18137 13.50193 5.32118 5.16381 0.0669 6.55484-0.28853 8.25-2.10808zm-30.52387-5.70977c0.30536-0.49408-0.74433-2.28948-2.33264-3.98977l-2.88783-3.09143-20.358346-0.44176c-11.197092-0.24298-22.38335-0.88353-24.85835-1.42346-5.037508-1.09895-5.829736-0.85995-4.091594 1.23439 1.913338 2.30543 9.276933 5.37778 16.70833 6.97132 7.667604 1.64418 36.90812 2.21685 37.82043 0.74071zm64.33908-2.65639c3.45194-0.98328 6.13967-2.19753 5.97273-2.69834-0.16694-0.50081-2.99125-2.36384-6.27625-4.14005-3.285-1.77622-5.97273-3.6519-5.97273-4.16819 0-0.52681 7.24007-1.1581 16.5-1.4387 10.07594-0.30533 16.47124-0.88934 16.42612-1.5-0.0406-0.55-2.39144-2.88923-5.22402-5.19829-5.67826-4.62879-16.04102-8.43843-28.49713-10.47633-15.21125-2.48866-43.70497-1.06901-43.70497 2.17752 0 0.40864 3.95406 1.46639 8.7868 2.35055 22.19289 4.06024 31.19227 10.20903 32.03713 21.88923 0.35292 4.87897 0.71511 5.84212 2.05231 5.45747 0.89307-0.2569 4.44807-1.2716 7.90001-2.25487zm-33.27625-0.26475c3.40505-0.59947 4.04706-1.11148 4.31642-3.44237l0.31642-2.73816-7.99406 0c-7.44587 0-21.38197 1.43749-25.38878 2.61882-2.55245 0.75254-2.14284 2.07104 1 3.2189 3.16541 1.1561 21.82132 1.38657 27.75 0.34281zm-37.5-8.05809c0-0.48265-0.70393-1.46176-1.56429-2.17579-0.9863-0.81856-1.35082-2.14873-0.98657-3.60003 0.78-3.10779 0.65849-3.12338-29.449136-3.77975-14.025-0.30575-27.4125-0.84263-29.75-1.19306-13.038871-1.95475 5.831558 8.28959 19.513386 10.59338 6.551364 1.10315 42.23661 1.23432 42.23661 0.15525zm28.85331-0.7649c3.38068-0.35335 6.14669-1.01578 6.14669-1.47206 0-0.45629-2.49985-1.55634-5.55522-2.44456-5.74728-1.67078-26.42781-1.79927-28.04736-0.17425-3.2595 3.2705 12.63977 5.63946 27.45589 4.09087z" fill="#000"/>
      <g id="g4059" style="fill:#fff;filter:url(#filter4599);font-family:Sans;font-size:39.51014328000000100px;letter-spacing:0px;line-height:125%;word-spacing:0px">
        <path id="path4061" d="m399.35846 352.75238-24.65525 0-7.0146-54.58882-22.91897 54.58882-9.79265 0-21.87719-54.58882-8.05637 54.58882-24.51635 0 16.11273-94.80119 24.308 0 19.23804 50.56063 20.34927-50.56063 24.51635 0zM469.01823 352.75238l-53.96375 0 0-94.80119 53.96375 0 0 20.62707-29.3085 0 0 16.04328 27.71112 0 0 20.62707-27.71112 0 0 16.8767 29.3085 0M469.01823 352.75238l-53.96375 0 0-94.80119 53.96375 0 0 20.62707-29.3085 0 0 16.04328 27.71112 0 0 20.62707-27.71112 0 0 16.8767 29.3085 0M469.01823 352.75238l-53.96375 0 0-94.80119 53.96375 0 0 20.62707-29.3085 0 0 16.04328 27.71112 0 0 20.62707-27.71112 0 0 16.8767 29.3085 0M469.01823 352.75238l-53.96375 0 0-94.80119 53.96375 0 0 20.62707-29.3085 0 0 16.04328 27.71112 0 0 20.62707-27.71112 0 0 16.8767 29.3085 0M469.01823 352.75238l-53.96375 0 0-94.80119 53.96375 0 0 20.62707-29.3085 0 0 16.04328 27.71112 0 0 20.62707-27.71112 0 0 16.8767 29.3085 0" style="-inkscape-font-specification:Aharoni Bold;fill:#fff;font-family:Aharoni;font-size:142.23651122999999000px;font-weight:bold"/>
        <path id="path4063" d="m469.01823 352.75238-53.96375 0 0-94.80119 53.96375 0 0 20.62707-29.3085 0 0 16.04328 27.71112 0 0 20.62707-27.71112 0 0 16.8767 29.3085 0z" style="-inkscape-font-specification:Aharoni Bold;fill:#fff;font-family:Aharoni;font-size:142.23651122999999000px;font-weight:bold"/>
        <path id="path4065" d="m563.61106 352.75238-30.69753 0-23.47458-36.39254 0 36.39254-24.65525 0 0-94.80119 38.33718 0c11.20477 0.00009 19.49263 3.35691 24.86361 10.07046 4.35221 5.41729 6.52835 11.78366 6.52843 19.09914-0.00008 8.38053-2.50033 15.07101-7.50075 20.07146-3.19484 3.19481-7.59342 5.41725-13.19577 6.66733zm-34.72571-64.24256c-0.00006-3.37991-1.22703-6.22741-3.68093-8.54253-2.31509-2.17607-6.04232-3.26414-11.18168-3.26422l-4.58379 0 0 23.68294 4.58379 0c5.18567 0.00005 8.91289-1.08802 11.18168-3.26422 2.4539-2.36129 3.68087-5.23194 3.68093-8.61197z" style="-inkscape-font-specification:Aharoni Bold;fill:#fff;font-family:Aharoni;font-size:142.23651122999999000px;font-weight:bold"/>
        <path id="path4067" d="m642.23007 350.52993c-8.05643 3.19477-15.51088 4.79215-22.36336 4.79215-11.94568 0-22.64119-3.81982-32.08655-11.45948-12.03826-9.76948-18.05738-22.50223-18.05737-38.19828-0.00001-15.74226 6.01911-28.49816 18.05737-38.26774 9.44536-7.63956 20.21032-11.45938 32.29491-11.45948 6.57467 0.0001 13.95966 1.59748 22.155 4.79215l0 29.51685c-2.31512-2.82429-4.67647-4.95413-7.08404-6.38953-4.39866-2.63908-9.12135-3.95866-14.16809-3.95873-6.38958 0.00007-11.94569 1.92156-16.66834 5.76447-5.97286 4.86166-8.95927 11.52899-8.95924 20.00201-0.00003 8.42681 2.98638 15.07099 8.95924 19.93255 4.72265 3.84301 10.27876 5.76449 16.66834 5.76447 5.04674 0.00002 9.76943-1.31955 14.16809-3.95873 2.36127-1.389 4.72262-3.51884 7.08404-6.38953z" style="-inkscape-font-specification:Aharoni Bold;fill:#fff;font-family:Aharoni;font-size:142.23651122999999000px;font-weight:bold"/>
        <path id="path4069" d="m740.57328 312.60946c-0.0001 5.69505-0.46311 10.55664-1.38903 14.5848-1.43542 6.25064-4.86169 11.94566-10.27881 17.08505-7.68603 7.26925-17.96483 10.90387-30.83643 10.90387-13.10321 0-23.33571-3.70407-30.69753-11.11223-3.8893-3.88926-6.5516-8.77401-7.98692-14.65425-1.01863-4.16706-1.52794-9.76946-1.52793-16.80724l0-54.65827 24.65526 0 0 51.3246c-0.00004 4.12082 0.0694 7.19983 0.20835 9.23704 0.46298 6.43586 3.40308 10.92705 8.82033 13.47358 2.2224 1.06494 4.67635 1.5974 7.36185 1.59738 6.01907 0.00002 10.55656-2.10667 13.61248-6.32008 2.26868-3.10214 3.40305-9.0981 3.40312-17.98792l0-51.3246 24.65526 0z" style="-inkscape-font-specification:Aharoni Bold;fill:#fff;font-family:Aharoni;font-size:142.23651122999999000px;font-weight:bold"/>
        <path id="path4071" d="m839.19431 352.75238-30.69753 0-23.47458-36.39254 0 36.39254-24.65525 0 0-94.80119 38.33718 0c11.20477 0.00009 19.49263 3.35691 24.86361 10.07046 4.35221 5.41729 6.52836 11.78366 6.52843 19.09914-0.00007 8.38053-2.50032 15.07101-7.50075 20.07146-3.19483 3.19481-7.59342 5.41725-13.19577 6.66733zM804.4686 288.50982c-0.00005-3.37991-1.22703-6.22741-3.68093-8.54253-2.31509-2.17607-6.04231-3.26414-11.18167-3.26422l-4.5838 0 0 23.68294 4.5838 0c5.18566 0.00005 8.91288-1.08802 11.18167-3.26422 2.4539-2.36129 3.68088-5.23194 3.68093-8.61197z" style="-inkscape-font-specification:Aharoni Bold;fill:#fff;font-family:Aharoni;font-size:142.23651122999999000px;font-weight:bold"/>
        <path id="path4073" d="m932.32864 257.95119-35.48968 49.24106 0 45.56013-24.65525 0 0-45.56013-34.309-49.24106 29.4474 0 17.91847 25.83593 17.22395-25.83593z" style="-inkscape-font-specification:Aharoni Bold;fill:#fff;font-family:Aharoni;font-size:142.23651122999999000px;font-weight:bold"/>
      </g>
      <g id="text3048" style="fill:#000;font-family:Sans;font-size:39.51014328px;letter-spacing:0px;line-height:125%;word-spacing:0px">
        <path d="m399.35846 352.75238-24.65525 0-7.0146-54.58882-22.91897 54.58882-9.79265 0-21.87719-54.58882-8.05637 54.58882-24.51635 0 16.11273-94.80119 24.308 0 19.23804 50.56063 20.34927-50.56063 24.51635 0zM469.01823 352.75238l-53.96375 0 0-94.80119 53.96375 0 0 20.62707-29.3085 0 0 16.04328 27.71112 0 0 20.62707-27.71112 0 0 16.8767 29.3085 0M469.01823 352.75238l-53.96375 0 0-94.80119 53.96375 0 0 20.62707-29.3085 0 0 16.04328 27.71112 0 0 20.62707-27.71112 0 0 16.8767 29.3085 0M469.01823 352.75238l-53.96375 0 0-94.80119 53.96375 0 0 20.62707-29.3085 0 0 16.04328 27.71112 0 0 20.62707-27.71112 0 0 16.8767 29.3085 0M469.01823 352.75238l-53.96375 0 0-94.80119 53.96375 0 0 20.62707-29.3085 0 0 16.04328 27.71112 0 0 20.62707-27.71112 0 0 16.8767 29.3085 0M469.01823 352.75238l-53.96375 0 0-94.80119 53.96375 0 0 20.62707-29.3085 0 0 16.04328 27.71112 0 0 20.62707-27.71112 0 0 16.8767 29.3085 0" id="path3062" style="-inkscape-font-specification:Aharoni Bold;font-family:Aharoni;font-size:142.23651123px;font-weight:bold"/>
        <path d="m469.01823 352.75238-53.96375 0 0-94.80119 53.96375 0 0 20.62707-29.3085 0 0 16.04328 27.71112 0 0 20.62707-27.71112 0 0 16.8767 29.3085 0z" id="path3064" style="-inkscape-font-specification:Aharoni Bold;font-family:Aharoni;font-size:142.23651123px;font-weight:bold"/>
        <path d="m563.61106 352.75238-30.69753 0-23.47458-36.39254 0 36.39254-24.65525 0 0-94.80119 38.33718 0c11.20477 0.00009 19.49263 3.35691 24.86361 10.07046 4.35221 5.41729 6.52835 11.78366 6.52843 19.09914-0.00008 8.38053-2.50033 15.07101-7.50075 20.07146-3.19484 3.19481-7.59342 5.41725-13.19577 6.66733zm-34.72571-64.24256c-0.00006-3.37991-1.22703-6.22741-3.68093-8.54253-2.31509-2.17607-6.04232-3.26414-11.18168-3.26422l-4.58379 0 0 23.68294 4.58379 0c5.18567 0.00005 8.91289-1.08802 11.18168-3.26422 2.4539-2.36129 3.68087-5.23194 3.68093-8.61197z" id="path3066" style="-inkscape-font-specification:Aharoni Bold;font-family:Aharoni;font-size:142.23651123px;font-weight:bold"/>
        <path d="m642.23007 350.52993c-8.05643 3.19477-15.51088 4.79215-22.36336 4.79215-11.94568 0-22.64119-3.81982-32.08655-11.45948-12.03826-9.76948-18.05738-22.50223-18.05737-38.19828-0.00001-15.74226 6.01911-28.49816 18.05737-38.26774 9.44536-7.63956 20.21032-11.45938 32.29491-11.45948 6.57467 0.0001 13.95966 1.59748 22.155 4.79215l0 29.51685c-2.31512-2.82429-4.67647-4.95413-7.08404-6.38953-4.39866-2.63908-9.12135-3.95866-14.16809-3.95873-6.38958 0.00007-11.94569 1.92156-16.66834 5.76447-5.97286 4.86166-8.95927 11.52899-8.95924 20.00201-0.00003 8.42681 2.98638 15.07099 8.95924 19.93255 4.72265 3.84301 10.27876 5.76449 16.66834 5.76447 5.04674 0.00002 9.76943-1.31955 14.16809-3.95873 2.36127-1.389 4.72262-3.51884 7.08404-6.38953z" id="path3068" style="-inkscape-font-specification:Aharoni Bold;font-family:Aharoni;font-size:142.23651123px;font-weight:bold"/>
        <path d="m740.57328 312.60946c-0.0001 5.69505-0.46311 10.55664-1.38903 14.5848-1.43542 6.25064-4.86169 11.94566-10.27881 17.08505-7.68603 7.26925-17.96483 10.90387-30.83643 10.90387-13.10321 0-23.33571-3.70407-30.69753-11.11223-3.8893-3.88926-6.5516-8.77401-7.98692-14.65425-1.01863-4.16706-1.52794-9.76946-1.52793-16.80724l0-54.65827 24.65526 0 0 51.3246c-0.00004 4.12082 0.0694 7.19983 0.20835 9.23704 0.46298 6.43586 3.40308 10.92705 8.82033 13.47358 2.2224 1.06494 4.67635 1.5974 7.36185 1.59738 6.01907 0.00002 10.55656-2.10667 13.61248-6.32008 2.26868-3.10214 3.40305-9.0981 3.40312-17.98792l0-51.3246 24.65526 0z" id="path3070" style="-inkscape-font-specification:Aharoni Bold;font-family:Aharoni;font-size:142.23651123px;font-weight:bold"/>
        <path d="m839.19431 352.75238-30.69753 0-23.47458-36.39254 0 36.39254-24.65525 0 0-94.80119 38.33718 0c11.20477 0.00009 19.49263 3.35691 24.86361 10.07046 4.35221 5.41729 6.52836 11.78366 6.52843 19.09914-0.00007 8.38053-2.50032 15.07101-7.50075 20.07146-3.19483 3.19481-7.59342 5.41725-13.19577 6.66733zM804.4686 288.50982c-0.00005-3.37991-1.22703-6.22741-3.68093-8.54253-2.31509-2.17607-6.04231-3.26414-11.18167-3.26422l-4.5838 0 0 23.68294 4.5838 0c5.18566 0.00005 8.91288-1.08802 11.18167-3.26422 2.4539-2.36129 3.68088-5.23194 3.68093-8.61197z" id="path3072" style="-inkscape-font-specification:Aharoni Bold;font-family:Aharoni;font-size:142.23651123px;font-weight:bold"/>
        <path d="m932.32864 257.95119-35.48968 49.24106 0 45.56013-24.65525 0 0-45.56013-34.309-49.24106 29.4474 0 17.91847 25.83593 17.22395-25.83593z" id="path3074" style="-inkscape-font-specification:Aharoni Bold;font-family:Aharoni;font-size:142.23651123px;font-weight:bold"/>
      </g>
      <g id="g4035">
        <path transform="translate(-6.9198443,173.2996)" id="path3995" d="m91.440403 154.50142 3.577425-3.44206 11.065432-0.50392c12.59331-0.57351 19.94496-1.53622 23.56543-3.08591 4.03573-1.72745 0.96024-2.19205-7.74852-1.17054-8.45216 0.99141-15.51776 1.17282-19.57291 0.50255-2.19313-0.3625-2.678568-0.74134-2.678568-2.09038 0-1.26527 8.110768-25.14001 11.085018-32.62973 0.62587-1.57605 2.02174-1.60163 3.29181-0.0603 0.53917 0.65432 2.74817 2.31289 4.90889 3.68571 2.16071 1.37283 5.94926 4.37319 8.41899 6.66748 2.46973 2.29428 4.80414 4.17143 5.18757 4.17143 0.38344 0 1.45374 1.71075 2.37844 3.80166 2.12342 4.80144 4.38522 6.57063 10.73648 8.39817 7.47882 2.15198 14.48895 4.89096 15.4348 6.03063 2.06048 2.48273-8.67735 8.29285-19.29914 10.44257-10.67487 2.16045-18.36925 2.73101-36.78572 2.72775l-17.142852-0.003 3.577425-3.44205 0-0.00003z" fill="#fff"/>
        <path transform="translate(-6.9198443,173.2996)" id="path3997" d="M89.291549 183.73979C81.736605 181.04697 78.03595 178.52354 68.482898 169.55065 57.738323 159.45859 57.84425 159.53678 53.272219 158.32357l-3.266384-0.86674 2.748848-0.54824c4.377169-0.87298 9.793852 0.0294 18.833049 3.13753 9.773981 3.36077 14.659851 4.09816 31.275248 4.72019 16.97878 0.63564 17.9418 1.02295 10.80533 4.34584-4.63515 2.15822-5.81811 2.14209-12.32555-0.1681-5.17742-1.83802-5.342767-1.85203-6.322102-0.53572-1.889955 2.54028-2.707973 7.68411-1.737248 10.92411 0.485213 1.61949 1.312325 3.3015 1.838029 3.73779 2.745003 2.27815-0.327001 2.63097-5.82989 0.66956l0 0z" fill="#fff"/>
        <path transform="translate(-6.9198443,173.2996)" id="path3999" d="m112.14869 203.22592c-4.66121-0.96889-10.37698-2.75052-12.84065-4.00249-3.475896-1.76636-9.510264-6.19587-11.445062-8.40121l-1.428572-1.62833 3.214286 0.44732c1.767857 0.24602 10.767858 0.94833 19.999998 1.56068 9.23214 0.61235 19.51786 1.56052 22.85714 2.10705 3.33929 0.54653 8.48215 1.22546 11.42858 1.50874l5.35714 0.51505-3.72129 1.65141c-11.98771 5.31984-25.61396 7.86467-33.42157 6.24178z" fill="#fff"/>
        <path transform="translate(-6.9198443,173.2996)" id="path4001" d="m115.72012 186.51413c-8.3659-1.45184-15.27261-5.05662-17.110949-8.93063-0.673978-1.4203-1.035906-2.77188-0.804284-3.0035 0.231622-0.23162 2.051469-0.0448 4.044103 0.41515 5.26474 1.21525 10.57929 1.00919 13.87113-0.53781 1.57143-0.73849 5.3108-3.41925 8.30972-5.95725l5.45258-4.61453 8.28678-1.29961c4.55772-0.71479 8.53264-1.05375 8.83313-0.75326 0.68885 0.68885 0.67713 7.10439-0.0192 10.48965-0.70069 3.40664-4.88269 8.17228-8.97887 10.23195-6.85863 3.4487-15.65641 5.04062-21.88418 3.95984z" fill="#fff"/>
        <path transform="translate(-6.9198443,173.2996)" id="path4003" d="m138.67946 188.85394c-0.23677-0.3831 1.30281-1.8474 3.42128-3.25398 6.92549-4.59827 9.19838-8.96798 10.06288-19.3462 0.59676-7.16392 0.57757-7.1367 8.27937-11.74985 4.8017-2.87608 5.25517-3.01444 6.09875-1.86077 1.49336 2.04229 3.29933 11.57305 2.96254 15.63434-0.72188 8.70495-7.76306 16.63718-17.09212 19.25513-5.1134 1.43493-13.18264 2.21134-13.7327 1.32133l0 0z" fill="#fff"/>
        <path transform="translate(-6.9198443,173.2996)" id="path4005" d="m157.211 137.23703c-3.99512-1.99357-5.39957-3.43218-7.29943-7.47703-5.31231-11.31003 2.14553-23.50254 14.37998-23.50921 4.81559-0.003 7.53481 1.15392 11.1034 4.72251 6.6056 6.6056 6.55452 17.40961-0.1089 23.03384-5.54631 4.68133-12.62975 5.94709-18.07505 3.22989l0 0zm9.73694-2.8656c2.57177-0.71425 7.37427-4.10458 6.72871-4.75014-0.17495-0.17495-1.62215 0.34719-3.216 1.16031-5.91566 3.01795-12.49518 1.19188-15.31365-4.25012-1.72109-3.32316-1.20674-6.91298 1.56843-10.94656 2.50491-3.64075 2.62541-4.0392 1.22154-4.0392-1.54908 0-5.2744 4.66828-6.20562 7.7764-1.80293 6.01765 2.10167 13.31172 7.94653 14.84469 4.09784 1.07476 4.13338 1.07576 7.27006 0.20462l0 0zm6.98647-19.21378c0-0.81784-2.99165-3.00124-3.46444-2.52845-0.42668 0.42668 2.05298 3.20223 2.86086 3.20223 0.33196 0 0.60358-0.3032 0.60358-0.67378z" fill="#fff"/>
        <path transform="translate(-6.9198443,173.2996)" id="path4007" d="m181.4179 110.09466c-2.38096-3.24351-2.55823-3.78694-1.81815-5.57364 2.118-5.113316 6.03555-7.495952 18.19219-11.064417 4.59196-1.347927 8.54701-2.64876 8.78899-2.890738 0.61695-0.616952-1.65399-2.979937-5.76182-5.995362-3.40897-2.502412-3.45475-2.584555-1.7985-3.227005 2.53304-0.982553 23.991-0.14575 25.35817 0.988901 0.60927 0.505649 2.38151 3.452722 3.93832 6.54905 3.21634 6.396995 7.50908 11.428451 11.47806 13.453271 3.2812 1.67395 3.43299 3.07844 0.52392 4.84756-1.94384 1.18211-4.30447 1.3693-21.25 1.68503-18.91401 0.3524-19.11845 0.37266-26.11538 2.58822-3.87867 1.22818-7.46737 2.23304-7.97488 2.23304-0.50751 0-2.10992-1.61726-3.56092-3.59391z" fill="#fff"/>
        <path transform="translate(-6.9198443,173.2996)" id="path4009" d="m185.10413 91.387177c-0.23976-0.894946-0.44032-2.292048-0.44568-3.104673-0.005-0.812624-0.50961-3.160693-1.12055-5.217932-1.46197-4.923005-5.46014-8.879281-12.01132-11.885474-4.6895-2.151913-7.44078-2.94151-22.50461-6.458657-3.51716-0.821196-4.92564-1.42284-4.23533-1.809156 4.08151-2.284125 31.33076-2.880086 42.7719-0.935452 13.46499 2.288626 24.76727 7.00176 30.57967 12.751955l2.4181 2.392213-5.27524 0.414534c-2.90138 0.227993-10.18435 0.695398-16.18439 1.038678-6.00003 0.343279-11.11943 0.834418-11.37643 1.091419-0.58377 0.583778 0.9654 1.772975 7.19324 5.52178 3.61467 2.175826 4.6497 3.120769 3.92857 3.586636-0.80866 0.52241-5.08274 1.89904-12.14054 3.91032-0.76186 0.217111-1.31143-0.228831-1.59739-1.296191l0 0z" fill="#fff"/>
        <path transform="translate(-6.9198443,173.2996)" id="path4011" d="m166.97012 101.36947c-1.27679-0.40958-2.32143-0.97963-2.32143-1.26677 0-0.287147 0.83379-2.407419 1.85286-4.711721 5.31691-12.022486-0.40612-18.297938-19.50703-21.389978-6.04096-0.977907-17.8816-1.801989-41.98869-2.922321-15.499043-0.720289-10.088204-1.558493 10.35715-1.604446 40.9177-0.09197 63.1813 6.622032 63.11325 19.032954-0.0336 6.132885-4.59185 13.897272-8.03101 13.679892-0.63452-0.0401-2.19831-0.40803-3.4751-0.81761z" fill="#fff"/>
        <path transform="translate(-6.9198443,173.2996)" id="path4013" d="m192.14869 188.4179c-8.25-2.85763-16.08326-5.76185-17.40725-6.45381-2.67698-1.39907-2.66333-1.20025-0.81255-11.84059 0.9076-5.21791 0.25606-10.54982-2.14025-17.5148-2.4263-7.05219-2.22376-7.25222 3.92577-3.87716 2.94329 1.61537 5.67133 2.82903 6.06231 2.69703 0.39098-0.132-0.61402-2.41433-2.23333-5.07185l-2.94421-4.83184 3.05564-4.35611c1.6806-2.39586 3.9638-6.81081 5.07377-9.81101 2.93142-7.92342 6.0744-10.04261 18.087-12.19536 4.63247-0.83017 16.22881-1.01071 21.19769-0.33002l3.13541 0.42953 0 9.03476c0 8.88057 0.0602 9.22078 3.52931 19.93403 2.53845 7.83928 3.31159 11.11697 2.75385 11.67471-0.42649 0.4265-3.46111 1.10471-6.74359 1.50714-6.92026 0.84841-9.1074 2.11851-6.04831 3.51232 1.58442 0.72191 1.89793 1.28114 1.72281 3.0731l-0.21407 2.1906-5.08424-0.092c-6.15451-0.11143-9.94707-1.26849-12.22925-3.731-1.61292-1.74037-1.81885-1.78428-3.62185-0.77228-3.99797 2.244-2.98526 3.21863 6.57676 6.32949 4.91733 1.59978 9.44652 2.90869 10.06487 2.90869 0.61834 0 1.32711 0.52863 1.57504 1.17472 0.68904 1.7956-1.74261 3.111-5.75098 3.111l-3.55376 0 2.97599 2.74742c2.6635 2.45893 2.97599 3.09293 2.97599 6.03782 0 1.80971-0.33909 4.03462-0.75354 4.94423-0.92651 2.03348-4.91483 4.85526-6.79066 4.80447-0.7614-0.0206-8.13437-2.37555-16.38437-5.23319zm29.82001-54.19361c0.61959-2.0625 1.68875-5.20492 2.37592-6.98316 1.10409-2.85716 1.13165-3.47881 0.23701-5.34542-0.55969-1.16775-2.44786-2.91585-4.22266-3.9094-4.02493-2.2532-11.42409-2.48709-16.51566-0.52206-3.42763 1.32285-6.2229 3.71985-5.3527 4.59005 0.2749 0.2749 4.58543 0.62924 9.57895 0.78743 9.17345 0.29059 11.57913 0.99893 11.57913 3.40942 0 1.31097-2.2005 1.85713-11.01317 2.73339-4.28938 0.42651-7.90023 1.09689-8.0241 1.48975-0.63821 2.02408 1.20877 2.85714 6.33453 2.85714 4.92865 0 5.32215 0.1223 7.46923 2.32143 1.53169 1.56883 2.94089 2.32143 4.34674 2.32143 1.89027 0 2.18314-0.34247 3.20678-3.75l0 0z" fill="#fff"/>
        <path transform="translate(-6.9198443,173.2996)" id="path4015" d="m137.52933 90.889663c-3.28223-0.267218-5.25195-0.83038-6.30598-1.802939l-0.76719-0.707884 0.56362-0.477018c1.62921-1.378877 14.83654-2.925467 27.55327-3.226513l6.91791-0.163769-0.13916 0.735781c-0.0765 0.404679-0.2145 1.303991-0.30659 1.998471-0.21432 1.616186-0.45609 2.047461-1.43018 2.551182-1.80553 0.933678-4.30863 1.155654-13.96597 1.238511-5.13915 0.04409-10.59303-0.02153-12.11973-0.145822l0 0z" fill="#fff"/>
        <path transform="translate(-6.9198443,173.2996)" id="path4017" d="m138.41111 82.167699c-8.37386-0.477095-14.42403-2.130045-13.79513-3.768928 0.27753-0.723234 1.81448-1.098955 5.73674-1.402391 7.29578-0.56442 18.3744 0.05821 22.89841 1.286916 2.16152 0.587059 4.73168 1.751624 4.73168 2.143967 0 0.390774-2.97772 1.042781-6.18718 1.354753-3.21038 0.312061-10.82534 0.531491-13.38452 0.385683z" fill="#fff"/>
        <path transform="translate(-6.9198443,173.2996)" id="path4019" d="M93.333052 83.073471C82.767098 82.806334 79.586505 82.388719 73.761346 80.503687 66.062669 78.012382 58.096765 74.13397 57.503584 72.588164c-0.264588-0.689505 0.980227-0.925738 3.364807-0.638549 3.259791 0.392596 10.996431 0.724232 26.782553 1.148051 26.375516 0.708119 30.472366 0.920797 32.379616 1.680914 0.69851 0.278385 1.11492 1.019416 0.83099 1.478817-0.27836 0.450402-0.18582 2.705883 0.13625 3.320833 0.17183 0.328072 0.76297 1.090083 1.31365 1.693357 0.67734 0.742034 0.91832 1.179781 0.74491 1.353184-0.55281 0.552817-16.23918 0.789616-29.723308 0.4487z" fill="#fff"/>
        <path transform="translate(-6.9198443,173.2996)" id="path4021" d="M108.2328 94.16954C96.651274 93.721465 91.713595 93.030721 85.802028 91.031643 79.861947 89.022923 76.521101 87.282235 75.257177 85.537439 74.655074 84.706261 74.574338 84.45696 74.856184 84.299231c0.194094-0.10862 1.703379 0.02892 3.353967 0.305652 5.508519 0.92353 16.689724 1.48814 37.799129 1.90872l8.53409 0.170032 2.00329 2.175115c1.1018 1.196313 2.29394 2.708879 2.64918 3.361257 0.64369 1.182085 0.64412 1.187093 0.12672 1.463995-1.20988 0.64751-11.04854 0.87402-21.08976 0.485538l0 0z" fill="#fff"/>
        <path transform="translate(-6.9198443,173.2996)" id="path4023" d="m121.11225 103.12631c-5.9837-0.29226-9.73388-1.0134-12.8719-2.47518-1.74258-0.811736-2.89636-1.738472-2.48269-1.994134 1.04045-0.643031 9.22159-1.275185 16.74355-1.293768l6.43972-0.01591 1.46321 0.740902c1.49659 0.757802 5.50456 3.82917 5.66592 4.34188 0.0493 0.15651-0.11412 0.37185-0.36306 0.47854-0.47276 0.2026-11.52762 0.36749-14.59475 0.21767z" fill="#fff"/>
        <path transform="translate(-6.9198443,173.2996)" id="path4025" d="m130.07735 112.11588c-3.30907-0.25377-5.15758-0.66791-7.01253-1.57106-1.76787-0.86076-3.96143-2.75046-3.79072-3.26563 0.17028-0.51385 5.84811-0.76038 11.2436-0.48818 5.17025 0.26083 6.18717 0.55597 7.64789 2.21964 0.87008 0.99097 1.67935 2.51811 1.45388 2.74358-0.53602 0.53602-5.04171 0.70679-9.54212 0.36165z" fill="#fff"/>
        <path transform="translate(-6.9198443,173.2996)" id="path4027" d="m135.31359 120.9374c-2.05445-0.48403-4.73116-2.47149-4.73116-3.5129 0-1.03221 1.90117-1.81605 5.42957-2.23856 4.65705-0.55766 6.27259-0.47731 7.10319 0.35329 0.55665 0.55665 0.61755 0.77648 0.46508 1.67891-0.23046 1.36407-0.72328 2.51484-1.30084 3.03752-0.94352 0.85388-4.68213 1.21977-6.96584 0.68174z" fill="#fff"/>
        <path transform="translate(-6.9198443,173.2996)" id="path4029" d="m143.46939 108.94299c-1.04611-0.45374-1.77529-1.07427-1.77529-1.51076 0-0.17443 0.53831-0.57773 1.19623-0.89622 0.98374-0.47622 1.72855-0.59807 4.19292-0.68593 3.40637-0.12145 3.43754-0.0849 1.51251 1.77584-1.68201 1.62578-3.39812 2.06669-5.12637 1.31707z" fill="#fff"/>
        <path transform="translate(-6.9198443,173.2996)" id="path4031" d="m145.98725 100.87783c-4.73073-0.68516-8.84043-2.143113-9.04302-3.208082-0.12941-0.680305 1.29736-1.376753 3.44912-1.683616 3.46664-0.494379 11.94403-1.088665 16.07424-1.126844 6.74022-0.06231 7.30288 0.578387 3.81237 4.341061-1.61034 1.735901-2.28371 1.916771-7.34791 1.973781-2.80543 0.0316-5.46415-0.0819-6.9448-0.2963z" fill="#fff"/>
        <path transform="translate(-6.9198443,173.2996)" id="path4033" d="m142.54985 131.84642c-2.07701-1.27603-2.57544-4.06826-0.72622-4.06826 1.08314 0 2.51752 2.25369 2.35212 3.69564-0.10187 0.88807-0.60079 1.00241-1.6259 0.37262z" fill="#fff"/>
      </g>
    </g>
  </g>
</svg>
